<svg width="34" height="25" viewBox="0 0 34 25" fill="none" xmlns="http://www.w3.org/2000/svg">
<path d="M4.25807 24.6666H29.0323C30.1603 24.6625 31.241 24.2126 32.0387 23.415C32.8363 22.6173 33.2863 21.5366 33.2903 20.4086V4.92469C33.2863 3.79664 32.8363 2.71595 32.0387 1.91829C31.241 1.12063 30.1603 0.670706 29.0323 0.666626H4.25807C3.13001 0.670706 2.04933 1.12063 1.25167 1.91829C0.454006 2.71595 0.0040798 3.79664 0 4.92469V20.4086C0.0040798 21.5366 0.454006 22.6173 1.25167 23.415C2.04933 24.2126 3.13001 24.6625 4.25807 24.6666ZM2.88947 3.5561C3.25244 3.19312 3.74474 2.98921 4.25807 2.98921H29.0323C29.5456 2.98921 30.0379 3.19312 30.4009 3.5561C30.6433 3.79851 30.8147 4.09861 30.9019 4.42412L17.9613 12.0937C17.5509 12.3441 17.0794 12.4765 16.5987 12.4765C16.118 12.4765 15.6465 12.3441 15.2361 12.0937L2.37626 4.47198C2.45901 4.12805 2.63522 3.81035 2.88947 3.5561ZM2.32258 7.06424L14.0903 14.0602C14.8645 14.5164 15.7466 14.757 16.6452 14.757C17.5437 14.757 18.4259 14.5164 19.2 14.0602L30.9677 7.01582V20.4086C30.9677 20.9219 30.7638 21.4142 30.4009 21.7772C30.0379 22.1401 29.5456 22.344 29.0323 22.344H4.25807C3.74474 22.344 3.25244 22.1401 2.88947 21.7772C2.5265 21.4142 2.32258 20.9219 2.32258 20.4086V7.06424Z" fill="#F1F1F1"/>
</svg>
