<svg width="18" height="24" viewBox="0 0 18 24" fill="none" xmlns="http://www.w3.org/2000/svg">
<path d="M2.5771 2.5771C4.22719 0.92701 6.46519 0 8.79876 0C11.1323 0 13.3703 0.92701 15.0204 2.5771C16.6705 4.22719 17.5975 6.46519 17.5975 8.79876C17.5975 13.3974 9.92196 23.0714 9.43568 23.6843L9.42268 23.7007C9.34772 23.7941 9.25275 23.8695 9.14476 23.9213C9.03678 23.9731 8.91853 24 8.79876 24C8.67899 24 8.56075 23.9731 8.45276 23.9213C8.34477 23.8695 8.2498 23.7941 8.17485 23.7007L8.16184 23.6843C7.67557 23.0714 0 13.3974 0 8.79876C0 6.46519 0.92701 4.22719 2.5771 2.5771ZM1.59977 8.79876C1.59977 11.9023 6.32711 18.7014 8.79876 21.9009C11.2704 18.6854 15.9977 11.9023 15.9977 8.79876C15.9977 6.88947 15.2393 5.05838 13.8892 3.70831C12.5391 2.35824 10.7081 1.59978 8.79876 1.59978C6.88947 1.59978 5.05838 2.35824 3.70831 3.70831C2.35824 5.05838 1.59977 6.88947 1.59977 8.79876ZM6.1324 4.00838C6.92165 3.48103 7.84955 3.19955 8.79876 3.19955C10.0716 3.19955 11.2924 3.70519 12.1924 4.60524C13.0924 5.50529 13.5981 6.72602 13.5981 7.99888C13.5981 8.94809 13.3166 9.87599 12.7893 10.6652C12.2619 11.4545 11.5123 12.0696 10.6354 12.4329C9.75842 12.7961 8.79344 12.8912 7.86246 12.706C6.93149 12.5208 6.07633 12.0637 5.40513 11.3925C4.73393 10.7213 4.27684 9.86615 4.09166 8.93518C3.90647 8.0042 4.00152 7.03922 4.36477 6.16225C4.72802 5.28529 5.34316 4.53574 6.1324 4.00838ZM7.02119 10.6592C7.54735 11.0108 8.16595 11.1984 8.79876 11.1984C9.64734 11.1984 10.4612 10.8613 11.0612 10.2613C11.6612 9.66127 11.9983 8.84745 11.9983 7.99888C11.9983 7.36606 11.8107 6.74746 11.4591 6.2213C11.1075 5.69514 10.6078 5.28504 10.0232 5.04288C9.43854 4.80071 8.79522 4.73735 8.17456 4.8608C7.55391 4.98426 6.98381 5.28899 6.53634 5.73645C6.08888 6.18392 5.78415 6.75402 5.66069 7.37467C5.53724 7.99533 5.6006 8.63865 5.84277 9.22329C6.08493 9.80793 6.49503 10.3076 7.02119 10.6592Z" fill="#F1F1F1"/>
</svg>
