<svg width="25" height="25" viewBox="0 0 25 25" fill="none" xmlns="http://www.w3.org/2000/svg">
<path fill-rule="evenodd" clip-rule="evenodd" d="M4.16667 0H7.29167C8.39674 0 9.45655 0.438987 10.2379 1.22039C11.0193 2.00179 11.4583 3.0616 11.4583 4.16667V7.29167C11.4583 8.39674 11.0193 9.45655 10.2379 10.2379C9.45655 11.0193 8.39674 11.4583 7.29167 11.4583H4.16667C3.0616 11.4583 2.00179 11.0193 1.22039 10.2379C0.438987 9.45655 0 8.39674 0 7.29167V4.16667C0 3.0616 0.438987 2.00179 1.22039 1.22039C2.00179 0.438987 3.0616 0 4.16667 0ZM8.76481 8.76481C9.15551 8.37411 9.375 7.8442 9.375 7.29167V4.16667C9.375 3.61413 9.15551 3.08423 8.76481 2.69353C8.37411 2.30283 7.8442 2.08333 7.29167 2.08333H4.16667C3.61413 2.08333 3.08423 2.30283 2.69353 2.69353C2.30283 3.08423 2.08333 3.61413 2.08333 4.16667V7.29167C2.08333 7.8442 2.30283 8.37411 2.69353 8.76481C3.08423 9.15551 3.61413 9.375 4.16667 9.375H7.29167C7.8442 9.375 8.37411 9.15551 8.76481 8.76481ZM17.7083 0H20.8333C21.9384 0 22.9982 0.438987 23.7796 1.22039C24.561 2.00179 25 3.0616 25 4.16667V7.29167C25 8.39674 24.561 9.45655 23.7796 10.2379C22.9982 11.0194 21.9384 11.4583 20.8333 11.4583H17.7083C16.6033 11.4583 15.5435 11.0194 14.7621 10.2379C13.9807 9.45655 13.5417 8.39674 13.5417 7.29167V4.16667C13.5417 3.0616 13.9807 2.00179 14.7621 1.22039C15.5435 0.438987 16.6033 0 17.7083 0ZM22.3065 8.76481C22.6972 8.37411 22.9167 7.8442 22.9167 7.29167V4.16667C22.9167 3.61413 22.6972 3.08423 22.3065 2.69353C21.9158 2.30283 21.3859 2.08333 20.8333 2.08333H17.7083C17.1558 2.08333 16.6259 2.30283 16.2352 2.69353C15.8445 3.08423 15.625 3.61413 15.625 4.16667V7.29167C15.625 7.8442 15.8445 8.37411 16.2352 8.76481C16.6259 9.15551 17.1558 9.375 17.7083 9.375H20.8333C21.3859 9.375 21.9158 9.15551 22.3065 8.76481ZM7.29167 13.5417H4.16667C3.0616 13.5417 2.00179 13.9807 1.22039 14.7621C0.438987 15.5435 0 16.6033 0 17.7083V20.8333C0 21.9384 0.438987 22.9982 1.22039 23.7796C2.00179 24.561 3.0616 25 4.16667 25H7.29167C8.39674 25 9.45655 24.561 10.2379 23.7796C11.0193 22.9982 11.4583 21.9384 11.4583 20.8333V17.7083C11.4583 16.6033 11.0193 15.5435 10.2379 14.7621C9.45655 13.9807 8.39674 13.5417 7.29167 13.5417ZM9.375 20.8333C9.375 21.3859 9.15551 21.9158 8.76481 22.3065C8.37411 22.6972 7.8442 22.9167 7.29167 22.9167H4.16667C3.61413 22.9167 3.08423 22.6972 2.69353 22.3065C2.30283 21.9158 2.08333 21.3859 2.08333 20.8333V17.7083C2.08333 17.1558 2.30283 16.6259 2.69353 16.2352C3.08423 15.8445 3.61413 15.625 4.16667 15.625H7.29167C7.8442 15.625 8.37411 15.8445 8.76481 16.2352C9.15551 16.6259 9.375 17.1558 9.375 17.7083V20.8333ZM17.7083 13.5417H20.8333C21.9384 13.5417 22.9982 13.9807 23.7796 14.7621C24.561 15.5435 25 16.6033 25 17.7083V20.8333C25 21.9384 24.561 22.9982 23.7796 23.7796C22.9982 24.561 21.9384 25 20.8333 25H17.7083C16.6033 25 15.5435 24.561 14.7621 23.7796C13.9807 22.9982 13.5417 21.9384 13.5417 20.8333V17.7083C13.5417 16.6033 13.9807 15.5435 14.7621 14.7621C15.5435 13.9807 16.6033 13.5417 17.7083 13.5417ZM22.3065 22.3065C22.6972 21.9158 22.9167 21.3859 22.9167 20.8333V17.7083C22.9167 17.1558 22.6972 16.6259 22.3065 16.2352C21.9158 15.8445 21.3859 15.625 20.8333 15.625H17.7083C17.1558 15.625 16.6259 15.8445 16.2352 16.2352C15.8445 16.6259 15.625 17.1558 15.625 17.7083V20.8333C15.625 21.3859 15.8445 21.9158 16.2352 22.3065C16.6259 22.6972 17.1558 22.9167 17.7083 22.9167H20.8333C21.3859 22.9167 21.9158 22.6972 22.3065 22.3065Z" fill="white"/>
</svg>
