<svg width="19" height="25" viewBox="0 0 19 25" fill="none" xmlns="http://www.w3.org/2000/svg">
<path fill-rule="evenodd" clip-rule="evenodd" d="M12.8473 11.4467C11.8195 12.1335 10.6111 12.5 9.375 12.5C7.7179 12.4984 6.12915 11.8393 4.9574 10.6676C3.78566 9.49585 3.12665 7.9071 3.12499 6.25001C3.12499 5.01387 3.49155 3.8055 4.17831 2.77769C4.86507 1.74988 5.84119 0.948804 6.98322 0.475756C8.12526 0.00270804 9.38193 -0.121063 10.5943 0.120095C11.8067 0.361253 12.9203 0.956508 13.7944 1.83059C14.6685 2.70467 15.2638 3.81831 15.5049 5.03069C15.7461 6.24307 15.6223 7.49974 15.1492 8.64178C14.6762 9.78382 13.8751 10.7599 12.8473 11.4467ZM11.6899 2.78555C11.0047 2.32771 10.1991 2.08334 9.375 2.08334C8.26993 2.08334 7.21012 2.52232 6.42872 3.30373C5.64731 4.08513 5.20833 5.14494 5.20833 6.25001C5.20833 7.0741 5.4527 7.87968 5.91054 8.56488C6.36838 9.25009 7.01912 9.78414 7.78048 10.0995C8.54184 10.4149 9.37962 10.4974 10.1879 10.3366C10.9961 10.1758 11.7386 9.77901 12.3213 9.19629C12.904 8.61357 13.3008 7.87114 13.4616 7.06288C13.6224 6.25463 13.5399 5.41685 13.2245 4.65549C12.9091 3.89413 12.3751 3.24339 11.6899 2.78555ZM2.74892 17.3322C4.50648 15.5747 6.88944 14.5861 9.375 14.5833C11.8606 14.5861 14.2435 15.5747 16.0011 17.3322C17.7586 19.0898 18.7473 21.4728 18.75 23.9583C18.75 24.2346 18.6403 24.4995 18.4449 24.6949C18.2496 24.8902 17.9846 25 17.7083 25C17.4321 25 17.1671 24.8902 16.9718 24.6949C16.7764 24.4995 16.6667 24.2346 16.6667 23.9583C16.6667 22.0244 15.8984 20.1698 14.531 18.8023C13.1635 17.4349 11.3089 16.6666 9.375 16.6666C7.44113 16.6666 5.58647 17.4349 4.21901 18.8023C2.85156 20.1698 2.08333 22.0244 2.08333 23.9583C2.08333 24.2346 1.97359 24.4995 1.77824 24.6949C1.58289 24.8902 1.31793 25 1.04167 25C0.7654 25 0.500448 24.8902 0.305097 24.6949C0.109747 24.4995 0 24.2346 0 23.9583C0.00275714 21.4728 0.991363 19.0898 2.74892 17.3322Z" fill="#2B388D"/>
</svg>
