<svg width="24" height="24" viewBox="0 0 24 24" fill="none" xmlns="http://www.w3.org/2000/svg">
<path fill-rule="evenodd" clip-rule="evenodd" d="M20 1.33333C20 0.597333 19.4027 0 18.6667 0H1.33333C0.597333 0 0 0.597333 0 1.33333V18.6667C0 19.4027 0.597333 20 1.33333 20H18.6667C19.4027 20 20 19.4027 20 18.6667V1.33333ZM2.66667 2.66667V17.3333H17.3333V2.66667H2.66667Z" fill="#2B388D"/>
<path fill-rule="evenodd" clip-rule="evenodd" d="M3.99996 24.0002H22.6666C23.4026 24.0002 24 23.4028 24 22.6668C24 21.9308 23.4026 21.3335 22.6666 21.3335H3.99996C3.26396 21.3335 2.66663 21.9308 2.66663 22.6668C2.66663 23.4028 3.26396 24.0002 3.99996 24.0002Z" fill="#2B388D"/>
<path fill-rule="evenodd" clip-rule="evenodd" d="M21.3334 3.99984V22.6665C21.3334 23.4025 21.9307 23.9998 22.6667 23.9998C23.4027 23.9998 24 23.4025 24 22.6665V3.99984C24 3.26384 23.4027 2.6665 22.6667 2.6665C21.9307 2.6665 21.3334 3.26384 21.3334 3.99984Z" fill="#2B388D"/>
</svg>
