<svg width="25" height="25" viewBox="0 0 25 25" fill="none" xmlns="http://www.w3.org/2000/svg">
<path d="M24.0844 9.43026L16.1833 1.52344C15.2055 0.547844 13.8809 0 12.5 0C11.1191 0 9.79454 0.547844 8.81667 1.52344L0.915637 9.43026C0.624413 9.71979 0.393522 10.0643 0.236348 10.4438C0.0791741 10.8233 -0.00115667 11.2302 1.25828e-05 11.641V21.8731C1.25828e-05 22.7024 0.329252 23.4978 0.915303 24.0842C1.50135 24.6706 2.29621 25 3.12501 25H21.875C22.7038 25 23.4986 24.6706 24.0847 24.0842C24.6707 23.4978 25 22.7024 25 21.8731V11.641C25.0012 11.2302 24.9208 10.8233 24.7636 10.4438C24.6065 10.0643 24.3756 9.71979 24.0844 9.43026ZM15.625 22.9154H9.375V18.815C9.375 17.9857 9.70424 17.1904 10.2903 16.604C10.8763 16.0176 11.6712 15.6882 12.5 15.6882C13.3288 15.6882 14.1237 16.0176 14.7097 16.604C15.2958 17.1904 15.625 17.9857 15.625 18.815V22.9154ZM22.9167 21.8731C22.9167 22.1496 22.8069 22.4147 22.6116 22.6101C22.4162 22.8056 22.1513 22.9154 21.875 22.9154H17.7083V18.815C17.7083 17.4329 17.1596 16.1073 16.1828 15.13C15.2061 14.1527 13.8813 13.6036 12.5 13.6036C11.1187 13.6036 9.79391 14.1527 8.81716 15.13C7.8404 16.1073 7.29167 17.4329 7.29167 18.815V22.9154H3.12501C2.84874 22.9154 2.58379 22.8056 2.38844 22.6101C2.19309 22.4147 2.08334 22.1496 2.08334 21.8731V11.641C2.08431 11.3647 2.19396 11.1 2.38855 10.9041L10.2896 3.00037C10.8768 2.41557 11.6715 2.08726 12.5 2.08726C13.3285 2.08726 14.1232 2.41557 14.7104 3.00037L22.6114 10.9072C22.8053 11.1024 22.9149 11.3658 22.9167 11.641V21.8731Z" fill="#2B388D"/>
</svg>
