<svg width="54" height="54" viewBox="0 0 54 54" fill="none" xmlns="http://www.w3.org/2000/svg">
<defs>
<linearGradient id="paint0_linear_712_8049" x1="1.99819" y1="27" x2="52" y2="27" gradientUnits="userSpaceOnUse">
<stop stop-color="#FBB03B"/>
<stop offset="0.26" stop-color="#F49A29"/>
<stop offset="0.74" stop-color="#E9750B"/>
<stop offset="1" stop-color="#E56700"/>
</linearGradient>
<linearGradient id="paint1_linear_712_8049" x1="26.8571" y1="9" x2="26.8571" y2="45" gradientUnits="userSpaceOnUse">
<stop stop-color="#E42222"/>
<stop offset="1" stop-color="#731515"/>
</linearGradient>
</defs>
<circle cx="27" cy="27" r="25" stroke="url(#paint0_linear_712_8049)" stroke-width="3"/>
<path d="M35.8571 21.8571H20.4286V17.6271C20.4286 16.0211 21.0666 14.4808 22.2022 13.3451C23.3379 12.2094 24.8782 11.5714 26.4843 11.5714H27.23C28.8361 11.5714 30.3764 12.2094 31.512 13.3451C32.6477 14.4808 33.2857 16.0211 33.2857 17.6271C33.2857 17.9681 33.4212 18.2952 33.6623 18.5363C33.9034 18.7774 34.2304 18.9129 34.5714 18.9129C34.9124 18.9129 35.2394 18.7774 35.4806 18.5363C35.7217 18.2952 35.8571 17.9681 35.8571 17.6271C35.8537 15.3401 34.9437 13.1478 33.3266 11.5306C31.7094 9.91342 29.517 9.0034 27.23 9H26.4843C24.1973 9.0034 22.0049 9.91342 20.3877 11.5306C18.7706 13.1478 17.8605 15.3401 17.8571 17.6271V21.8571C16.8342 21.8571 15.8531 22.2635 15.1297 22.9869C14.4064 23.7102 14 24.6913 14 25.7143V37.6714C14.0034 39.614 14.7766 41.4761 16.1502 42.8498C17.5239 44.2234 19.386 44.9966 21.3286 45H32.3857C34.3283 44.9966 36.1904 44.2234 37.564 42.8498C38.9377 41.4761 39.7109 39.614 39.7143 37.6714V25.7143C39.7143 24.6913 39.3079 23.7102 38.5846 22.9869C37.8612 22.2635 36.8801 21.8571 35.8571 21.8571ZM37.1429 37.6714C37.1429 38.9331 36.6417 40.1431 35.7495 41.0352C34.8574 41.9274 33.6474 42.4286 32.3857 42.4286H21.3286C20.0669 42.4286 18.8569 41.9274 17.9648 41.0352C17.0726 40.1431 16.5714 38.9331 16.5714 37.6714V25.7143C16.5714 25.3733 16.7069 25.0463 16.948 24.8051C17.1891 24.564 17.5162 24.4286 17.8571 24.4286H35.8571C36.1981 24.4286 36.5252 24.564 36.7663 24.8051C37.0074 25.0463 37.1429 25.3733 37.1429 25.7143V37.6714ZM28.1429 33.0686V37.2857C28.1429 37.6267 28.0074 37.9537 27.7663 38.1949C27.5252 38.436 27.1981 38.5714 26.8571 38.5714C26.5161 38.5714 26.1891 38.436 25.948 38.1949C25.7069 37.9537 25.5714 37.6267 25.5714 37.2857V33.0686C25.0812 32.7855 24.6981 32.3487 24.4815 31.8257C24.2648 31.3027 24.2268 30.7229 24.3733 30.1761C24.5198 29.6293 24.8427 29.1462 25.2918 28.8016C25.7408 28.457 26.2911 28.2702 26.8571 28.2702C27.4232 28.2702 27.9734 28.457 28.4225 28.8016C28.8716 29.1462 29.1944 29.6293 29.341 30.1761C29.4875 30.7229 29.4495 31.3027 29.2328 31.8257C29.0162 32.3487 28.6331 32.7855 28.1429 33.0686Z" fill="url(#paint1_linear_712_8049)"/>
</svg>
