<svg width="38" height="31" viewBox="0 0 38 31" fill="none" xmlns="http://www.w3.org/2000/svg">
<path fill-rule="evenodd" clip-rule="evenodd" d="M37.9357 3.25374C37.9357 1.19831 36.7501 0 34.7168 0H3.2061C1.15769 0 0 1.1806 0 3.25374V27.4915C0 29.6343 1.11106 30.7571 3.23408 30.7582H18.902H34.7448C36.7757 30.7582 37.9357 29.5918 37.9357 27.5505C37.9381 19.4516 37.9381 11.3527 37.9357 3.25374ZM36.0412 27.5305C36.0412 28.5529 35.7404 28.8516 34.7157 28.8516H3.21193C2.16266 28.8516 1.8712 28.5541 1.8712 27.4856V3.19353C1.8712 2.26439 2.2058 1.92674 3.14081 1.92674H34.7588C35.7288 1.92674 36.0412 2.24787 36.0412 3.23839V27.5305ZM12.2915 21.1875H6.87383C6.49259 21.1875 6.13934 21.1367 5.87702 20.8133C5.77225 20.6837 5.70231 20.5289 5.67401 20.3639C5.64571 20.199 5.65999 20.0294 5.71547 19.8716C5.77096 19.7139 5.86576 19.5733 5.99068 19.4636C6.11561 19.3539 6.26641 19.2787 6.42847 19.2454C6.6211 19.2138 6.81652 19.2031 7.0114 19.2135H17.6148H17.7897C18.5021 19.2289 19.0069 19.6456 19.001 20.2135C18.9952 20.7814 18.5149 21.1828 17.7711 21.1863C16.5065 21.1904 15.2459 21.1894 13.9826 21.1884H13.9825H13.9823H13.9822H13.982H13.9818C13.4191 21.188 12.8559 21.1875 12.2915 21.1875ZM17.5579 15.3696H12.3115C11.0322 15.368 9.75324 15.3676 8.47469 15.3684C8.29946 15.3684 8.12442 15.3669 7.94953 15.3654C7.5019 15.3616 7.05531 15.3578 6.60932 15.379C6.36333 15.3834 6.12814 15.4821 5.95117 15.6552C5.77419 15.8283 5.6686 16.0629 5.65566 16.3117C5.63117 16.8028 6.00075 17.2373 6.52888 17.3282C6.66375 17.3459 6.79988 17.3519 6.93576 17.3459H17.6511C17.8253 17.3533 17.9997 17.341 18.1711 17.3093C18.6584 17.1971 19.0548 16.7332 18.9954 16.3081C18.9231 15.7839 18.6013 15.4664 18.0802 15.3837C17.9066 15.366 17.7321 15.3612 17.5579 15.3696ZM12.2578 13.483H6.72928C6.23146 13.483 5.86421 13.2823 5.70682 12.7829C5.56342 12.3284 5.73248 11.9813 6.08923 11.7027C6.28827 11.5468 6.52062 11.5468 6.7498 11.5468H6.75493H17.8714C18.5289 11.5468 18.9859 11.9494 18.9964 12.4913C19.0069 13.0332 18.5079 13.4795 17.8457 13.483C16.6082 13.4862 15.3671 13.4851 14.1248 13.4841H14.1247H14.1246H14.1237L14.1213 13.4841C13.5003 13.4835 12.879 13.483 12.2578 13.483ZM17.7256 5.76912H12.3137H6.95889C6.09032 5.76912 5.62981 6.13038 5.6473 6.74311C5.66479 7.35585 6.11364 7.68759 6.92974 7.68759H17.6964C18.481 7.68759 18.9847 7.32515 18.9963 6.74311C19.008 6.16108 18.5009 5.76912 17.7256 5.76912ZM11.3729 25.0269H6.77477C6.09508 25.0269 5.64157 24.6207 5.65089 24.0375C5.65905 23.4815 6.10558 23.0541 6.74446 23.0529C9.81066 23.0435 12.8765 23.0435 15.9419 23.0529C16.6227 23.0529 17.0716 23.485 17.0634 24.067C17.0553 24.6491 16.6181 25.0257 15.9127 25.0269C14.3995 25.0292 12.8862 25.0292 11.3729 25.0269ZM33.7083 8.46445C34.0231 8.63564 34.0919 8.86231 33.9333 9.19288C33.4961 10.1043 33.4483 11.0264 33.9263 11.9437C34.1257 12.325 33.9613 12.5269 33.6512 12.763C33.5391 12.8467 33.4186 12.9234 33.2976 13.0004C32.8639 13.2766 32.4251 13.5561 32.3512 14.1691C32.3175 14.4011 32.2976 14.6349 32.2918 14.8692C32.2918 15.851 32.2906 16.8324 32.2894 17.8139C32.2871 19.7771 32.2848 21.7406 32.2918 23.7084C32.2929 24.2562 32.2148 24.7426 31.6482 24.9646C31.1003 25.1806 30.7272 24.8595 30.3775 24.4923C30.1871 24.2942 29.9915 24.1014 29.7959 23.9087C29.4763 23.5937 29.1569 23.2791 28.8618 22.9422C28.5424 22.5738 28.3419 22.6364 28.0457 22.9634C27.7311 23.3096 27.3993 23.6397 27.0674 23.9699C26.8594 24.1769 26.6513 24.384 26.4474 24.595C26.1116 24.9409 25.7467 25.1582 25.2547 24.9563C24.7627 24.7544 24.6601 24.3188 24.6601 23.8465V19.2504C24.6601 18.8339 24.658 18.4168 24.6558 17.9993C24.6507 17.0036 24.6456 16.0055 24.6694 15.0073C24.6916 14.1254 24.4094 13.4926 23.654 12.9921C23.1774 12.6761 22.9461 12.5822 22.8913 12.4263C22.8377 12.274 22.9524 12.0624 23.1713 11.5269C23.5094 10.6993 23.3065 9.99687 23.0186 9.2708C22.8577 8.86704 22.9218 8.60376 23.3042 8.40424C23.7133 8.20325 24.0669 7.9028 24.3334 7.52972C24.5999 7.15664 24.771 6.72253 24.8315 6.26617C24.8956 5.86594 25.1055 5.69357 25.5112 5.76441C26.4998 5.93678 27.3404 5.6192 28.0399 4.9191C28.3302 4.62985 28.5855 4.59916 28.8747 4.89903C29.5905 5.63691 30.4521 5.91553 31.4559 5.76677C31.822 5.71129 32.0481 5.84351 32.1052 6.23902C32.2533 7.26378 32.8234 7.98276 33.7083 8.46445ZM30.2902 21.4728C30.325 21.4111 30.3413 21.3821 30.3413 21.3531C30.346 19.4893 30.3479 17.6243 30.3471 15.7582C30.3471 15.3367 30.1233 15.3497 29.861 15.5221C29.5298 15.7262 29.2145 15.9555 28.9178 16.208C28.6077 16.489 28.35 16.5256 28.0248 16.2257C27.7451 15.9832 27.4473 15.763 27.134 15.567C26.7213 15.2907 26.5919 15.358 26.5838 15.8409C26.5791 16.1834 26.5807 16.5249 26.5822 16.8657C26.583 17.0358 26.5838 17.2058 26.5838 17.3756V21.4759L26.8111 21.6329C26.8859 21.5397 26.9588 21.4446 27.0317 21.3494C27.1953 21.136 27.359 20.9224 27.5444 20.7297C28.2428 20.0037 28.6823 20.0096 29.4005 20.7415C29.5778 20.9227 29.7422 21.117 29.9188 21.3258C30.007 21.43 30.0982 21.5378 30.1956 21.6494C30.2357 21.5696 30.2671 21.5139 30.2902 21.4728ZM31.541 11.8894C31.6238 11.8422 31.752 11.7371 31.7403 11.6934H31.7438C31.534 10.9567 31.485 10.2259 31.7671 9.49039C31.1484 9.08864 30.7018 8.46565 30.5162 7.74546C29.7549 7.73838 29.0297 7.62032 28.5004 7.00759C28.4115 7.05058 28.3268 7.10197 28.2474 7.16107C28.0423 7.36951 27.7915 7.52595 27.5153 7.61765C27.2392 7.70936 26.9456 7.73373 26.6584 7.6888C26.3646 7.64984 26.304 7.88478 26.2597 8.09492C26.2198 8.3272 26.128 8.54715 25.9912 8.73788C25.8544 8.92862 25.6762 9.08508 25.4704 9.19524C25.1871 9.34754 25.0821 9.56359 25.2372 9.87409C25.3514 10.091 25.4111 10.3331 25.4111 10.5789C25.4111 10.8247 25.3514 11.0668 25.2372 11.2837C25.1031 11.5576 25.1591 11.776 25.4296 11.9248C25.6472 12.0338 25.8358 12.1943 25.9795 12.3925C26.1231 12.5908 26.2176 12.8211 26.255 13.0641C26.3075 13.3758 26.4905 13.4903 26.7901 13.4466C27.0305 13.4095 27.2761 13.4312 27.5065 13.5098C27.7369 13.5885 27.9454 13.7219 28.1145 13.8988C28.3477 14.1349 28.5739 14.1349 28.814 13.8988C28.983 13.7221 29.1914 13.5891 29.4216 13.5111C29.6519 13.433 29.8974 13.4121 30.1373 13.4501C30.3984 13.4867 30.6071 13.4171 30.6503 13.1184C30.7342 12.547 31.0676 12.1692 31.541 11.8894Z" fill="white"/>
</svg>
