<svg width="36" height="34" viewBox="0 0 36 34" fill="none" xmlns="http://www.w3.org/2000/svg">
<path d="M20.9482 24.5462C20.9482 25.9121 21.4909 27.2221 22.4567 28.188C23.4226 29.1538 24.7325 29.6964 26.0985 29.6964C27.4644 29.6964 28.7744 29.1538 29.7402 28.188C30.7061 27.2221 31.2487 25.9121 31.2487 24.5462C31.2487 23.1803 30.7061 21.8703 29.7402 20.9045C28.7744 19.9386 27.4644 19.396 26.0985 19.396C24.7325 19.396 23.4226 19.9386 22.4567 20.9045C21.4909 21.8703 20.9482 23.1803 20.9482 24.5462ZM26.0985 20.6836C27.1229 20.6836 28.1054 21.0905 28.8298 21.8149C29.5542 22.5393 29.9611 23.5218 29.9611 24.5462C29.9611 25.5707 29.5542 26.5531 28.8298 27.2775C28.1054 28.0019 27.1229 28.4089 26.0985 28.4089C25.074 28.4089 24.0915 28.0019 23.3671 27.2775C22.6428 26.5531 22.2358 25.5707 22.2358 24.5462C22.2358 23.5218 22.6428 22.5393 23.3671 21.8149C24.0915 21.0905 25.074 20.6836 26.0985 20.6836Z" fill="white"/>
<path d="M25.026 26.2198C25.1467 26.3404 25.3104 26.4082 25.4811 26.4082C25.6517 26.4082 25.8154 26.3404 25.9361 26.2198L28.3632 23.7895C28.4897 23.6752 28.5657 23.5153 28.5745 23.3449C28.5832 23.1746 28.524 23.0077 28.4098 22.881C28.3532 22.8182 28.2847 22.7672 28.2084 22.7309C28.132 22.6946 28.0493 22.6736 27.9648 22.6693C27.8804 22.665 27.7959 22.6773 27.7163 22.7056C27.6366 22.7339 27.5633 22.7777 27.5005 22.8343C27.4847 22.8483 27.4696 22.863 27.4554 22.8786L25.4823 24.8518L24.5166 23.8861C24.4017 23.7599 24.2413 23.6845 24.0708 23.6765C23.9002 23.6685 23.7335 23.7285 23.6073 23.8434C23.4809 23.9583 23.4054 24.1186 23.3972 24.2891C23.3891 24.4596 23.449 24.6264 23.5638 24.7528C23.5783 24.7681 23.5936 24.7834 23.6089 24.797L25.026 26.2198Z" fill="white"/>
<path d="M25.9923 15.5336C25.0267 15.5336 24.061 14.9896 24.061 13.9853C24.061 13.8146 23.9932 13.6508 23.8724 13.5301C23.7517 13.4094 23.588 13.3416 23.4172 13.3416C23.2465 13.3416 23.0827 13.4094 22.962 13.5301C22.8413 13.6508 22.7734 13.8146 22.7734 13.9853C22.7734 15.5722 23.9805 16.5154 25.3485 16.76V17.4649C25.3485 17.6357 25.4164 17.7994 25.5371 17.9202C25.6578 18.0409 25.8216 18.1087 25.9923 18.1087C26.1631 18.1087 26.3268 18.0409 26.4475 17.9202C26.5683 17.7994 26.6361 17.6357 26.6361 17.4649V16.789C28.1329 16.5765 29.2112 15.5529 29.2112 14.0594C29.2112 12.3791 27.634 11.7643 26.3657 11.2718C25.0975 10.7793 24.3829 10.451 24.3829 9.75893C24.3829 8.65485 25.4709 8.36193 26.1146 8.36193C26.7584 8.36193 27.7724 8.63554 27.7724 9.64949C27.7724 9.82023 27.8402 9.98398 27.9609 10.1047C28.0817 10.2254 28.2454 10.2933 28.4161 10.2933C28.5869 10.2933 28.7506 10.2254 28.8714 10.1047C28.9921 9.98398 29.0599 9.82023 29.0599 9.64949C29.0599 8.14949 27.9043 7.28039 26.6264 7.09691V6.52073C26.6264 6.34999 26.5586 6.18624 26.4379 6.06551C26.3172 5.94478 26.1534 5.87695 25.9827 5.87695C25.8119 5.87695 25.6482 5.94478 25.5274 6.06551C25.4067 6.18624 25.3389 6.34999 25.3389 6.52073V7.16451C24.1318 7.42846 23.0857 8.31043 23.0857 9.76537C23.0857 11.3748 24.634 11.9928 25.8797 12.4789C27.1254 12.9649 27.9237 13.3126 27.9237 14.0561C27.9237 15.0894 27.0385 15.5336 25.9923 15.5336Z" fill="white"/>
<path d="M33.0739 0.0825195H18.9108C18.3986 0.0825195 17.9074 0.285999 17.5452 0.648194C17.183 1.01039 16.9795 1.50163 16.9795 2.01385V15.8551C16.9795 16.0258 17.0473 16.1896 17.168 16.3103C17.2888 16.431 17.4525 16.4988 17.6233 16.4988C17.794 16.4988 17.9578 16.431 18.0785 16.3103C18.1992 16.1896 18.267 16.0258 18.267 15.8551V2.01385C18.267 1.84311 18.3349 1.67936 18.4556 1.55863C18.5763 1.4379 18.7401 1.37007 18.9108 1.37007H21.8078V2.01385C21.8078 2.52607 22.0113 3.01731 22.3735 3.37951C22.7357 3.7417 23.2269 3.94518 23.7392 3.94518H28.2456C28.7578 3.94518 29.2491 3.7417 29.6113 3.37951C29.9734 3.01731 30.1769 2.52607 30.1769 2.01385V1.37007H33.0739C33.2447 1.37007 33.4084 1.4379 33.5291 1.55863C33.6499 1.67936 33.7177 1.84311 33.7177 2.01385V31.6276C33.7177 31.7983 33.6499 31.9621 33.5291 32.0828C33.4084 32.2036 33.2447 32.2714 33.0739 32.2714H18.9108C18.7401 32.2714 18.5763 32.2036 18.4556 32.0828C18.3349 31.9621 18.267 31.7983 18.267 31.6276V29.3744C18.267 29.2036 18.1992 29.0399 18.0785 28.9192C17.9578 28.7984 17.794 28.7306 17.6233 28.7306C17.4525 28.7306 17.2888 28.7984 17.168 28.9192C17.0473 29.0399 16.9795 29.2036 16.9795 29.3744V31.6276C16.9795 32.1398 17.183 32.6311 17.5452 32.9933C17.9074 33.3555 18.3986 33.5589 18.9108 33.5589H33.0739C33.5861 33.5589 34.0774 33.3555 34.4396 32.9933C34.8018 32.6311 35.0053 32.1398 35.0053 31.6276V2.01385C35.0053 1.50163 34.8018 1.01039 34.4396 0.648194C34.0774 0.285999 33.5861 0.0825195 33.0739 0.0825195ZM28.8894 2.01385C28.8894 2.18459 28.8215 2.34834 28.7008 2.46907C28.5801 2.5898 28.4163 2.65763 28.2456 2.65763H23.7392C23.5684 2.65763 23.4047 2.5898 23.2839 2.46907C23.1632 2.34834 23.0954 2.18459 23.0954 2.01385V1.37007H28.8894V2.01385Z" fill="white"/>
<path d="M18.1863 24.9484C18.577 24.1421 18.9084 23.3084 19.1777 22.4538C19.3058 22.1129 19.3544 21.7472 19.3198 21.3846C19.2852 21.022 19.1684 20.6721 18.9782 20.3615C18.5486 19.6629 17.8899 19.1349 17.1144 18.868C17.1144 17.619 15.9878 16.7757 14.8612 16.2607C14.7472 15.8016 14.5287 15.3751 14.2227 15.0144C13.9167 14.6537 13.5316 14.3686 13.0972 14.1813C13.9181 12.2145 14.8902 9.77139 15.1799 8.73813C15.6627 7.01603 16.2035 5.27783 14.3623 4.59542C12.6434 3.95165 11.6005 6.00208 11.0951 6.98062C8.64553 11.7607 7.23244 13.9978 7.23244 14.03C6.65948 14.957 6.5275 15.1341 6.33759 15.1759C5.94536 14.6106 5.61003 14.0079 5.33651 13.3765C4.31291 11.2746 3.08329 10.4795 1.67986 11.001C-0.00362018 11.6351 -0.399543 13.3347 0.392303 15.0246C1.50604 17.4162 1.37728 20.5611 1.10368 23.162C0.936294 24.81 1.34509 26.104 2.32685 27.0246C2.26672 27.3325 2.17836 27.6342 2.06291 27.9259C2.03236 28.0047 2.01765 28.0888 2.0196 28.1734C2.02155 28.2579 2.04013 28.3412 2.07428 28.4185C2.10843 28.4959 2.15748 28.5657 2.21863 28.6241C2.27977 28.6825 2.35182 28.7283 2.43066 28.7588C2.52757 28.7967 2.63229 28.8102 2.73565 28.7982C4.15779 28.6966 5.58511 28.903 6.9202 29.4034C8.54582 30.0775 10.034 31.0442 11.3108 32.2553C11.4327 32.3748 11.597 32.441 11.7677 32.4393C11.9383 32.4377 12.1014 32.3683 12.2209 32.2465C12.2409 32.2261 12.2595 32.2043 12.2764 32.1813C13.4352 30.5718 12.888 31.1255 13.6992 30.4238C15.6852 28.7049 17.0179 27.324 18.167 24.9517L18.1863 24.9484ZM17.8644 21.0278C17.9586 21.1796 18.015 21.3518 18.029 21.5299C18.043 21.708 18.0142 21.8868 17.9449 22.0514C17.6947 22.8402 17.3892 23.6104 17.0307 24.3562C16.9182 24.5179 16.7524 24.6349 16.5623 24.6867C16.3723 24.7385 16.17 24.7217 15.991 24.6394C15.8126 24.542 15.6598 24.4037 15.5451 24.2358C15.4304 24.068 15.3571 23.8754 15.3312 23.6738C15.5881 23.3924 15.7891 23.0647 15.9234 22.7081C16.2968 21.7038 16.6219 21.0182 16.873 20.1974C17.279 20.3674 17.6245 20.6556 17.8644 21.0246V21.0278ZM15.7721 18.5976C15.9331 18.9195 15.6981 19.6502 15.5372 20.1426C15.4213 20.4999 15.0447 21.3497 14.7228 22.2349C14.5425 22.7178 14.1691 23.1652 13.6541 23.104C13.4434 23.0674 13.2461 22.9758 13.0822 22.8384C12.9183 22.7011 12.7936 22.5229 12.7206 22.3218C12.9783 22.0884 13.1768 21.7971 13.3 21.472C14.7872 17.7285 14.7228 17.8572 14.7872 17.6899C15.1971 17.8897 15.5396 18.2053 15.7721 18.5976ZM13.461 16.2188C13.9535 17.1426 13.2775 17.7703 12.1026 21.0053C11.9095 21.4881 11.594 21.5944 11.2013 21.4077C10.9824 21.2705 10.8133 21.0667 10.7189 20.8262C10.6245 20.5857 10.6096 20.3213 10.6766 20.0718C10.9985 18.9774 12.3183 16.0096 12.579 15.3948C12.9571 15.564 13.2684 15.8538 13.4642 16.2188H13.461ZM12.8655 29.4356C11.9803 30.2049 12.241 29.9892 11.6584 30.8229C10.3877 29.7149 8.94213 28.8252 7.38051 28.1899C6.155 27.7254 4.85731 27.4802 3.54681 27.4656C3.75926 26.5321 3.47278 26.2972 3.31827 26.1781C2.55217 25.5343 2.24638 24.6072 2.37836 23.3004C2.67771 20.5032 2.81612 17.1426 1.56076 14.4871C1.12621 13.5536 1.12621 12.5879 2.10153 12.2338C2.37836 12.1276 3.12192 11.8508 4.15196 13.9656C4.66055 15.0182 4.69273 14.9313 5.98351 17.9216C6.05826 18.075 6.19086 18.1925 6.35217 18.2481C6.51348 18.3038 6.69029 18.2932 6.84376 18.2186C6.98796 18.1486 7.10087 18.0273 7.1604 17.8785C7.21993 17.7296 7.2218 17.564 7.16564 17.4138C7.14955 17.372 6.96607 16.9503 6.73109 16.416C7.37487 16.2196 7.69676 15.6917 8.29869 14.7325C8.31801 14.7003 9.76972 12.3859 12.2257 7.59623C12.9564 6.17348 13.4393 5.6649 13.8996 5.82584C14.6721 6.11554 14.3405 6.92992 13.9253 8.40095C13.5487 9.74001 11.8684 13.8022 11.0927 15.5759C10.6453 16.6059 9.72466 18.7947 9.44784 19.6799C9.28587 20.2238 9.31618 20.8068 9.53369 21.3309C9.75119 21.8551 10.1426 22.2882 10.642 22.5576C10.9128 22.6873 11.2078 22.7586 11.5079 22.7668C11.6635 23.192 11.9321 23.5666 12.285 23.8502C12.6378 24.1339 13.0614 24.3158 13.5101 24.3763C13.7337 24.4042 13.9606 24.3911 14.1796 24.3377C14.2855 24.6554 14.454 24.9487 14.6752 25.2002C14.8963 25.4518 15.1656 25.6565 15.4672 25.8023C15.6714 25.8932 15.8886 25.9518 16.1109 25.9761C15.1966 27.2747 14.1053 28.4391 12.8687 29.4356H12.8655Z" fill="white"/>
<path d="M7.00045 5.31325V1.59544C7.00045 1.4247 6.93262 1.26095 6.81189 1.14022C6.69116 1.01949 6.52741 0.95166 6.35667 0.95166C6.18593 0.95166 6.02218 1.01949 5.90145 1.14022C5.78072 1.26095 5.71289 1.4247 5.71289 1.59544V5.31325C5.71289 5.48399 5.78072 5.64774 5.90145 5.76847C6.02218 5.8892 6.18593 5.95703 6.35667 5.95703C6.52741 5.95703 6.69116 5.8892 6.81189 5.76847C6.93262 5.64774 7.00045 5.48399 7.00045 5.31325Z" fill="white"/>
<path d="M9.09263 6.63L11.5068 3.9197C11.5632 3.85638 11.6065 3.78255 11.6343 3.70243C11.6621 3.62232 11.6738 3.5375 11.6687 3.45285C11.6636 3.36821 11.6419 3.2854 11.6047 3.20919C11.5675 3.13298 11.5157 3.06486 11.4521 3.00875C11.389 2.95215 11.3153 2.90857 11.2353 2.88051C11.1553 2.85246 11.0705 2.84048 10.9859 2.84526C10.9013 2.85005 10.8184 2.87151 10.7421 2.9084C10.6657 2.94529 10.5975 2.9969 10.5411 3.06025L8.12696 5.77056C8.07055 5.83387 8.02721 5.90771 7.99942 5.98782C7.97163 6.06794 7.95994 6.15275 7.96503 6.2374C7.97011 6.32205 7.99187 6.40485 8.02905 6.48106C8.06623 6.55728 8.1181 6.62539 8.18168 6.6815C8.245 6.73791 8.31883 6.78125 8.39895 6.80904C8.47906 6.83683 8.56388 6.84852 8.64852 6.84343C8.73317 6.83835 8.81598 6.81659 8.89219 6.77941C8.9684 6.74223 9.03652 6.69036 9.09263 6.62678V6.63Z" fill="white"/>
<path d="M4.5318 6.68134C4.6588 6.56768 4.73553 6.40829 4.74519 6.23813C4.75484 6.06797 4.69663 5.90092 4.58331 5.77362L2.17236 3.0601C2.11625 2.99652 2.04814 2.94465 1.97192 2.90747C1.89571 2.87029 1.8129 2.84853 1.72826 2.84344C1.64361 2.83836 1.5588 2.85005 1.47868 2.87784C1.39857 2.90563 1.32473 2.94897 1.26142 3.00538C1.19736 3.06153 1.14508 3.12983 1.10761 3.20633C1.07015 3.28283 1.04823 3.366 1.04314 3.45103C1.03805 3.53606 1.04989 3.62125 1.07796 3.70168C1.10604 3.7821 1.14979 3.85615 1.20669 3.91954L3.62086 6.62984C3.73422 6.75742 3.8936 6.83476 4.06396 6.84487C4.23433 6.85498 4.40174 6.79703 4.52939 6.68376L4.5318 6.68134Z" fill="white"/>
</svg>
