<svg width="62" height="38" viewBox="0 0 62 38" fill="none" xmlns="http://www.w3.org/2000/svg">
<path d="M25.7427 29.4293C22.4314 29.3978 19.1202 29.4293 15.8188 29.4177C13.2393 29.4177 11.135 28.4241 9.39826 26.2714H10.3916C15.5738 26.2714 20.7559 26.2714 25.9381 26.2714C28.2957 26.2714 29.9414 24.6154 29.8884 22.2507C29.8672 21.4251 29.782 20.6023 29.6335 19.7899C28.097 11.366 19.7957 6.03383 11.587 8.17665C3.2459 10.3642 -1.4412 18.9818 1.29225 27.0944C3.1267 32.5392 8.15652 36.6791 14.0158 36.9987C17.9463 37.2123 21.8967 37.055 25.8387 37.0318C26.8144 37.0147 27.7468 36.6263 28.4463 35.9458C29.1457 35.2653 29.5596 34.3438 29.6037 33.3688C29.708 31.1664 28.0689 29.4591 25.7427 29.4293ZM27.2692 34.2316C27.1056 34.4891 26.8773 34.6993 26.6071 34.8411C26.337 34.9829 26.0343 35.0514 25.7295 35.0397C21.842 35.0397 17.948 35.2218 14.0671 34.9933C8.70288 34.677 3.95617 30.6017 2.80881 25.0575C1.06377 16.68 7.64327 9.17353 16.1996 9.72663C22.6731 10.1472 27.9745 15.8537 27.9182 22.3434C27.9083 23.5705 27.1682 24.2759 25.8536 24.2776C19.4 24.2776 12.9468 24.2776 6.49426 24.2776H5.38168C6.47771 25.6885 7.39162 27.0016 8.44295 28.1923C10.3983 30.4229 12.9281 31.4164 15.8619 31.4164H25.6301C26.3983 31.4164 27.0424 31.6532 27.4232 32.3703C27.7626 33.0194 27.6599 33.6536 27.2692 34.2415V34.2316Z" fill="white"/>
<path d="M54.8244 10.0545C50.2796 7.22945 45.5164 6.97608 40.6289 9.12718C40.1505 9.33749 39.9998 9.37723 40.018 8.76452C40.0594 7.41657 40.0362 6.06365 40.0296 4.71404C40.0213 2.37251 38.3872 0.650306 36.1687 0.638714C33.9087 0.628779 32.2531 2.35926 32.2531 4.74219C32.2531 7.80241 32.2531 10.8621 32.2531 13.9212H32.2315C32.2315 16.7016 32.2315 19.4819 32.2315 22.2623C32.1984 31.4694 40.2415 38.3433 49.3525 36.8844C55.3128 35.9306 60.1141 31.2773 61.3377 25.2811C62.5264 19.424 59.9121 13.2207 54.8244 10.0545ZM46.7267 35.0943C39.7879 34.9586 34.2514 29.4111 34.2249 22.519C34.2018 16.5939 34.2249 10.6689 34.2415 4.7455C34.2415 3.11272 35.7034 2.12411 37.0312 2.85274C37.7448 3.2452 38.0528 3.88274 38.0495 4.70245C38.0362 7.35199 38.0495 9.99325 38.0495 12.7587L40.6985 11.328C48.682 7.02245 58.1787 11.7718 59.5197 20.7405C60.6373 28.2701 54.427 35.2483 46.7267 35.0977V35.0943Z" fill="white"/>
<path d="M22.2754 16.9979C18.8532 12.3778 11.5883 12.3612 8.13132 16.9532C7.28032 18.0876 6.57667 19.3328 5.75879 20.5963H24.6165C23.7986 19.3279 23.1032 18.1157 22.2754 16.9979ZM9.36146 18.6373C10.8068 16.5724 12.6909 15.5473 15.1098 15.5192C17.5933 15.491 19.5304 16.5343 21.0403 18.6373H9.36146Z" fill="white"/>
<path d="M46.975 13.4111C42.0544 13.363 37.9799 17.4119 37.96 22.3649C37.9402 27.3179 42.0097 31.3766 46.9319 31.3667C49.2977 31.3521 51.5633 30.4099 53.2419 28.7424C54.9205 27.075 55.878 24.8154 55.9088 22.4493C55.9452 17.5179 51.9336 13.4591 46.975 13.4111ZM46.9617 29.3762C43.1339 29.4044 39.9816 26.2713 39.9534 22.4212C39.9475 21.0395 40.3515 19.6871 41.1141 18.5351C41.8768 17.3831 42.9639 16.4832 44.238 15.9492C45.5121 15.4153 46.9159 15.2712 48.2718 15.5354C49.6278 15.7995 50.8749 16.4599 51.8555 17.4331C52.8362 18.4062 53.5062 19.6484 53.7809 21.0025C54.0555 22.3566 53.9225 23.7618 53.3987 25.0402C52.8748 26.3187 51.9836 27.4131 50.8378 28.1849C49.692 28.9567 48.3431 29.3713 46.9617 29.3762Z" fill="white"/>
</svg>
