<svg width="42" height="30" viewBox="0 0 42 30" fill="none" xmlns="http://www.w3.org/2000/svg">
<path d="M25.1598 8.6051C24.532 8.6051 23.9042 8.83054 23.9042 9.36168V14.8344L21.2967 9.86067C20.6849 8.68562 20.347 8.6051 19.4456 8.6051C18.8178 8.6051 18.1901 8.84658 18.1901 9.37772V19.5987C18.1901 20.1138 18.8178 20.3713 19.4456 20.3713C20.0733 20.3713 20.701 20.1138 20.701 19.5987V14.1261L23.7593 19.6954C24.0652 20.2587 24.5803 20.3714 25.1597 20.3714C25.7874 20.3714 26.4151 20.1139 26.4151 19.5988V9.3616C26.4151 8.83054 25.7874 8.6051 25.1598 8.6051Z" fill="#2B388D"/>
<path d="M16.3397 10.7942C16.8226 10.7942 17.0963 10.2791 17.0963 9.6836C17.0963 9.16849 16.8708 8.6051 16.3397 8.6051H10.6094C10.0622 8.6051 9.51489 8.86262 9.51489 9.37772V19.5988C9.51489 20.1139 10.0622 20.3714 10.6094 20.3714H16.3397C16.8708 20.3714 17.0963 19.808 17.0963 19.2929C17.0963 18.6975 16.8226 18.1824 16.3397 18.1824H12.026V15.446H14.4404C14.9716 15.446 15.1969 14.931 15.1969 14.4964C15.1969 13.9813 14.9232 13.5145 14.4404 13.5145H12.026V10.7942H16.3397Z" fill="#2B388D"/>
<path d="M35.8693 14.5078L41.6663 2.3036C41.9035 1.80421 41.8683 1.21801 41.5729 0.750699C41.2774 0.283386 40.7631 0 40.2102 0H2.16752C1.27723 0 0.555542 0.721683 0.555542 1.61198V27.4036C0.555542 28.2939 1.27723 29.0156 2.16752 29.0156H40.2102C40.7631 29.0156 41.2774 28.7322 41.5728 28.2649C41.8682 27.7976 41.9035 27.2115 41.6662 26.712L35.8693 14.5078ZM3.7795 25.7917V3.22396H37.6599L32.6286 13.8162C32.4207 14.2538 32.4207 14.7618 32.6286 15.1994L37.6599 25.7917H3.7795Z" fill="#2B388D"/>
</svg>
