<svg width="41" height="30" viewBox="0 0 41 30" fill="none" xmlns="http://www.w3.org/2000/svg">
<path d="M36.5917 0.015625H3.52597C1.58175 0.015625 0 1.59738 0 3.54159V22.4256C0 24.3699 1.58175 25.9516 3.52597 25.9516H17.1205L19.1186 28.6155C19.5889 29.2426 20.5298 29.2413 20.9991 28.6155L22.9972 25.9516H36.5917C38.5359 25.9516 40.1176 24.3699 40.1176 22.4256V3.54159C40.1176 1.59738 38.5359 0.015625 36.5917 0.015625ZM37.767 22.4256C37.767 23.0737 37.2397 23.6009 36.5917 23.6009H22.4095C22.0395 23.6009 21.6912 23.7751 21.4692 24.071L20.0588 25.9515L18.6485 24.071C18.4265 23.7751 18.0782 23.6009 17.7082 23.6009H3.52597C2.8779 23.6009 2.35065 23.0737 2.35065 22.4256V3.54159C2.35065 2.89352 2.8779 2.36627 3.52597 2.36627H36.5917C37.2397 2.36627 37.767 2.89352 37.767 3.54159V22.4256Z" fill="#2B388D"/>
<path d="M18.345 8.22809C18.1498 7.7093 17.6462 7.34229 17.0582 7.34229C16.4967 7.34229 15.9958 7.67796 15.7829 8.19839C15.7752 8.21696 15.9308 7.8092 12.4185 17.0313C12.1242 17.804 12.6994 18.6252 13.5167 18.6252C13.9902 18.6252 14.4366 18.3368 14.6152 17.868L15.1623 16.4317H18.9283L19.4691 17.8646C19.6983 18.4717 20.3762 18.7786 20.9837 18.5492C21.591 18.32 21.8976 17.6419 21.6684 17.0346L18.345 8.22809ZM16.0575 14.081L17.0539 11.4645L18.0413 14.081H16.0575Z" fill="#2B388D"/>
<path d="M10.6903 9.75836C11.3393 9.75836 11.8656 9.23213 11.8656 8.58304C11.8656 7.93395 11.3393 7.40771 10.6903 7.40771H7.09659C6.4475 7.40771 5.92126 7.93395 5.92126 8.58304V17.4495C5.92126 18.0986 6.4475 18.6248 7.09659 18.6248C7.7456 18.6248 8.27191 18.0986 8.27191 17.4495V14.1077H10.4048C11.0539 14.1077 11.5801 13.5815 11.5801 12.9324C11.5801 12.2833 11.0539 11.757 10.4048 11.757H8.27191V9.75836H10.6903Z" fill="#2B388D"/>
<path d="M33.2795 16.0087C33.8378 15.1338 34.1629 14.0962 34.1629 12.9836C34.1629 9.87299 31.6321 7.34229 28.5216 7.34229C25.4109 7.34229 22.8804 9.87299 22.8804 12.9836C22.8804 16.0942 25.4109 18.6248 28.5216 18.6248C29.6708 18.6248 30.7402 18.2787 31.6328 17.6863L32.191 18.2446C32.65 18.7036 33.3941 18.7036 33.8531 18.2446C34.3121 17.7857 34.3121 17.0414 33.8531 16.5824L33.2795 16.0087ZM25.231 12.9835C25.231 11.1691 26.7072 9.69285 28.5216 9.69285C30.8753 9.69285 32.4766 12.1104 31.5472 14.2765L30.9957 13.7249C30.5367 13.266 29.7925 13.266 29.3335 13.7249C28.8745 14.1838 28.8745 14.9281 29.3335 15.3871L29.9116 15.9652C27.7464 16.9786 25.231 15.3944 25.231 12.9835Z" fill="#2B388D"/>
</svg>
