<svg width="54" height="54" viewBox="0 0 54 54" fill="none" xmlns="http://www.w3.org/2000/svg">
<defs>
<linearGradient id="paint0_linear_712_8043" x1="1.99819" y1="27" x2="52" y2="27" gradientUnits="userSpaceOnUse">
<stop stop-color="#FBB03B"/>
<stop offset="0.26" stop-color="#F49A29"/>
<stop offset="0.74" stop-color="#E9750B"/>
<stop offset="1" stop-color="#E56700"/>
</linearGradient>
<linearGradient id="paint1_linear_712_8043" x1="27.419" y1="9" x2="27.419" y2="45" gradientUnits="userSpaceOnUse">
<stop stop-color="#4CAC1F"/>
<stop offset="1" stop-color="#44700C"/>
</linearGradient>
<linearGradient id="paint2_linear_712_8043" x1="27.419" y1="9" x2="27.419" y2="45" gradientUnits="userSpaceOnUse">
<stop stop-color="#4CAC1F"/>
<stop offset="1" stop-color="#44700C"/>
</linearGradient>
<linearGradient id="paint3_linear_712_8043" x1="27.419" y1="9" x2="27.419" y2="45" gradientUnits="userSpaceOnUse">
<stop stop-color="#4CAC1F"/>
<stop offset="1" stop-color="#44700C"/>
</linearGradient>
<linearGradient id="paint4_linear_712_8043" x1="27.419" y1="9" x2="27.419" y2="45" gradientUnits="userSpaceOnUse">
<stop stop-color="#4CAC1F"/>
<stop offset="1" stop-color="#44700C"/>
</linearGradient>
<linearGradient id="paint5_linear_712_8043" x1="27.419" y1="9" x2="27.419" y2="45" gradientUnits="userSpaceOnUse">
<stop stop-color="#4CAC1F"/>
<stop offset="1" stop-color="#44700C"/>
</linearGradient>
<linearGradient id="paint6_linear_712_8043" x1="27.419" y1="9" x2="27.419" y2="45" gradientUnits="userSpaceOnUse">
<stop stop-color="#4CAC1F"/>
<stop offset="1" stop-color="#44700C"/>
</linearGradient>
<linearGradient id="paint7_linear_712_8043" x1="27.419" y1="9" x2="27.419" y2="45" gradientUnits="userSpaceOnUse">
<stop stop-color="#4CAC1F"/>
<stop offset="1" stop-color="#44700C"/>
</linearGradient>
<linearGradient id="paint8_linear_712_8043" x1="27.419" y1="9" x2="27.419" y2="45" gradientUnits="userSpaceOnUse">
<stop stop-color="#4CAC1F"/>
<stop offset="1" stop-color="#44700C"/>
</linearGradient>
<linearGradient id="paint9_linear_712_8043" x1="27.419" y1="9" x2="27.419" y2="45" gradientUnits="userSpaceOnUse">
<stop stop-color="#4CAC1F"/>
<stop offset="1" stop-color="#44700C"/>
</linearGradient>
<linearGradient id="paint10_linear_712_8043" x1="27.419" y1="9" x2="27.419" y2="45" gradientUnits="userSpaceOnUse">
<stop stop-color="#4CAC1F"/>
<stop offset="1" stop-color="#44700C"/>
</linearGradient>
</defs>
<circle cx="27" cy="27" r="25" stroke="url(#paint0_linear_712_8043)" stroke-width="3"/>
<path d="M27.1813 43.9448H25.6951C23.4631 43.9448 22.0765 43.2963 22.0765 42.2523V33.4915C23.5083 32.6631 24.5799 31.281 25.2644 29.3779C25.3632 29.1034 25.2181 28.8017 24.9403 28.7041C24.6623 28.6063 24.3572 28.7499 24.2585 29.0245C23.7319 30.4883 22.9895 31.5605 22.0018 32.2791C21.7881 31.5916 21.1397 31.0902 20.3749 31.0902H18.876C17.9378 31.0902 17.1746 31.8447 17.1746 32.7719V37.7334C17.1746 38.0249 17.4135 38.261 17.7084 38.261C18.0032 38.261 18.2422 38.0249 18.2422 37.7334V32.7719C18.2422 32.4264 18.5265 32.1454 18.876 32.1454H20.3749C20.7245 32.1454 21.0088 32.4264 21.0088 32.7719V43.3183C21.0088 43.6638 20.7245 43.9448 20.3749 43.9448H18.876C18.5265 43.9448 18.2422 43.6638 18.2422 43.3183V40.1761C18.2422 39.8847 18.0032 39.6485 17.7084 39.6485C17.4135 39.6485 17.1746 39.8847 17.1746 40.1761V43.3183C17.1746 44.2456 17.9379 45 18.876 45H20.3749C21.0534 45 21.6401 44.6054 21.9131 44.0363C22.5784 44.5684 23.7252 45 25.6951 45H27.1812C27.4761 45 27.715 44.7639 27.715 44.4724C27.715 44.181 27.4761 43.9448 27.1813 43.9448Z" fill="url(#paint1_linear_712_8043)"/>
<path d="M38.4583 34.4842C38.5401 34.2942 38.5855 34.0854 38.5855 33.8662V32.6727C38.5855 31.8 37.867 31.09 36.9841 31.09C36.3296 31.0899 32.2999 31.0901 31.7861 31.09C30.4396 31.1221 29.3388 29.8168 29.6099 28.4519L30.0048 26.3599C30.2914 24.8408 29.5151 23.3046 28.1168 22.6242C27.4505 22.2798 26.3876 22.6005 26.1194 23.4487L25.0116 26.6984C24.9175 26.9745 25.0676 27.2738 25.3471 27.3668C25.6264 27.4597 25.9292 27.3114 26.0233 27.0353L27.1311 23.7854C27.1785 23.6464 27.2833 23.5854 27.3415 23.5615C27.3991 23.5378 27.515 23.5076 27.6454 23.571C28.616 24.0432 29.1547 25.1106 28.9553 26.1665L28.5604 28.2584C28.2355 29.8345 29.2327 31.59 30.8866 32.0232C30.6364 32.3767 30.489 32.8063 30.489 33.2694C30.489 33.9243 30.7831 34.5121 31.2472 34.912C30.7705 35.3121 30.4672 35.9082 30.4672 36.5732C30.4672 37.2382 30.7704 37.8344 31.2472 38.2344C30.7831 38.6343 30.489 39.2221 30.489 39.877C30.489 40.5101 30.7638 41.0807 31.2014 41.4793C30.766 41.8463 30.489 42.3919 30.489 43.0005C30.489 43.3418 30.5761 43.6633 30.7293 43.9446H29.6532C29.3583 43.9446 29.1194 44.1808 29.1194 44.4722C29.1194 44.7637 29.3583 44.9998 29.6532 44.9998H36.2341C37.0646 44.9998 37.7404 44.332 37.7404 43.5112V42.49C37.7404 42.2723 37.6917 42.066 37.6063 41.8794C38.1858 41.5974 38.5856 41.0079 38.5856 40.3275V39.4265C38.5856 39.1582 38.5235 38.904 38.4127 38.6772C39.1285 38.4604 39.6506 37.8013 39.6506 37.0238V36.1227C39.6504 35.3618 39.1504 34.7147 38.4583 34.4842ZM37.5179 32.6727V33.8662C37.5179 34.1571 37.2784 34.3938 36.9841 34.3938H32.694C32.0668 34.3938 31.5565 33.8894 31.5565 33.2695C31.5565 32.6496 32.0669 32.1452 32.694 32.1452H36.9841C37.2784 32.1452 37.5179 32.3818 37.5179 32.6727ZM36.8362 38.7527C37.212 38.7527 37.5179 39.055 37.5179 39.4265V40.3275C37.5179 40.699 37.212 41.0012 36.8362 41.0012H32.694C32.0668 41.0012 31.5565 40.4969 31.5565 39.877C31.5565 39.2571 32.0669 38.7528 32.694 38.7528L36.8362 38.7527ZM36.6726 43.5111C36.6726 43.7501 36.4758 43.9446 36.234 43.9446H32.5116C31.985 43.9446 31.5565 43.521 31.5565 43.0005C31.5565 42.4799 31.985 42.0564 32.5116 42.0564C32.6619 42.0555 36.0505 42.057 36.234 42.0564C36.4758 42.0564 36.6726 42.2509 36.6726 42.4899V43.5111ZM38.5828 37.0238C38.5828 37.3953 38.277 37.6975 37.9011 37.6975H32.6722C32.0449 37.6975 31.5347 37.1932 31.5347 36.5733C31.5347 35.9534 32.045 35.449 32.6722 35.449H37.9011C38.277 35.449 38.5828 35.7513 38.5828 36.1228V37.0238Z" fill="url(#paint2_linear_712_8043)"/>
<path d="M23.5684 17.0414L22.9832 20.4136C22.8704 21.0693 23.5761 21.7772 24.3519 21.3965L27.416 19.8043L30.48 21.3964C31.082 21.7328 31.9767 21.2081 31.8487 20.4137L31.2635 17.0414L33.7424 14.6532C34.2405 14.2102 34.0295 13.1666 33.2196 13.063L29.7938 12.571L28.2619 9.50264C27.9747 8.88092 26.9388 8.78568 26.5701 9.50264L25.0381 12.5708L21.6124 13.0628C20.9086 13.146 20.5211 14.0845 21.0895 14.6531L23.5684 17.0414ZM25.2563 13.6058C25.5635 13.5616 25.8291 13.3709 25.9665 13.0957L27.416 10.1928L28.8656 13.0958C29.0031 13.371 29.2685 13.5616 29.5758 13.6058L32.8169 14.0712L30.4717 16.3307C30.2492 16.5449 30.1477 16.8535 30.2003 17.156L30.7539 20.3465L27.8548 18.8401C27.58 18.6974 27.2518 18.6975 26.977 18.8402L24.078 20.3465L24.6316 17.1561C24.6841 16.8535 24.5826 16.5449 24.3603 16.3308L22.0149 14.0712L25.2563 13.6058Z" fill="url(#paint3_linear_712_8043)"/>
<path d="M43.7982 16.2294C43.7037 15.942 43.457 15.7365 43.1544 15.6931L41.0465 15.3903L40.1039 13.5024C39.8611 12.9768 38.9852 12.896 38.6733 13.5024L37.7307 15.3902L35.6227 15.6931C35.0413 15.7664 34.6962 16.5349 35.1806 17.0377L36.706 18.5072L36.3459 20.5821C36.236 21.1289 36.8673 21.7221 37.5032 21.4133L39.3886 20.4335L41.2741 21.4134C41.7105 21.6926 42.5553 21.2785 42.4312 20.5822L42.0712 18.5072L43.5966 17.0376C43.8155 16.8266 43.8928 16.5169 43.7982 16.2294ZM41.2244 17.8495C41.0363 18.0306 40.9505 18.2915 40.9949 18.5473L41.2865 20.2277L39.7597 19.4344C39.6435 19.3741 39.516 19.3439 39.3886 19.3439C39.2611 19.3439 39.1336 19.374 39.0173 19.4344L37.4905 20.2277L37.7822 18.5473C37.8265 18.2915 37.7407 18.0306 37.5527 17.8496L36.3175 16.6595L38.0247 16.4144C38.2845 16.377 38.5089 16.2159 38.6252 15.9832L39.3886 14.4543L40.1519 15.9829C40.268 16.2157 40.4925 16.377 40.7525 16.4144L42.4595 16.6595L41.2244 17.8495Z" fill="url(#paint4_linear_712_8043)"/>
<path d="M17.6951 21.5048C18.0815 21.5177 18.5663 21.113 18.4805 20.5823L18.1204 18.5074L19.6459 17.0378C20.0514 16.6777 19.903 15.7869 19.2037 15.6932L17.0958 15.3904L16.1531 13.5026C15.9102 12.9768 15.0347 12.8963 14.7226 13.5026L13.7799 15.3905L11.672 15.6932C11.0906 15.7666 10.7455 16.535 11.2299 17.0378L12.7553 18.5074L12.3952 20.5823C12.2853 21.1291 12.9164 21.7223 13.5525 21.4134L15.4378 20.4336L17.3233 21.4134C17.441 21.4746 17.5683 21.5048 17.6951 21.5048ZM15.4378 19.3439C15.3104 19.3439 15.1828 19.3742 15.0667 19.4344L13.5399 20.2278L13.8315 18.5473C13.8759 18.2915 13.79 18.0307 13.6021 17.8496L12.3669 16.6596L14.0741 16.4144C14.334 16.377 14.5585 16.2157 14.6744 15.9832L15.4379 14.4544L16.2013 15.9833C16.3174 16.2159 16.5418 16.3771 16.8018 16.4144L18.5088 16.6596L17.2737 17.8496C17.0856 18.0307 16.9997 18.2915 17.0442 18.5474L17.3358 20.2278L15.8088 19.4344C15.6926 19.374 15.5652 19.3439 15.4378 19.3439Z" fill="url(#paint5_linear_712_8043)"/>
<path d="M27.1813 43.9448H25.6951C23.4631 43.9448 22.0765 43.2963 22.0765 42.2523V33.4915C23.5083 32.6631 24.5799 31.281 25.2644 29.3779C25.3632 29.1034 25.2181 28.8017 24.9403 28.7041C24.6623 28.6063 24.3572 28.7499 24.2585 29.0245C23.7319 30.4883 22.9895 31.5605 22.0018 32.2791C21.7881 31.5916 21.1397 31.0902 20.3749 31.0902H18.876C17.9378 31.0902 17.1746 31.8447 17.1746 32.7719V37.7334C17.1746 38.0249 17.4135 38.261 17.7084 38.261C18.0032 38.261 18.2422 38.0249 18.2422 37.7334V32.7719C18.2422 32.4264 18.5265 32.1454 18.876 32.1454H20.3749C20.7245 32.1454 21.0088 32.4264 21.0088 32.7719V43.3183C21.0088 43.6638 20.7245 43.9448 20.3749 43.9448H18.876C18.5265 43.9448 18.2422 43.6638 18.2422 43.3183V40.1761C18.2422 39.8847 18.0032 39.6485 17.7084 39.6485C17.4135 39.6485 17.1746 39.8847 17.1746 40.1761V43.3183C17.1746 44.2456 17.9379 45 18.876 45H20.3749C21.0534 45 21.6401 44.6054 21.9131 44.0363C22.5784 44.5684 23.7252 45 25.6951 45H27.1812C27.4761 45 27.715 44.7639 27.715 44.4724C27.715 44.181 27.4761 43.9448 27.1813 43.9448Z" stroke="url(#paint6_linear_712_8043)" stroke-width="0.5" stroke-linejoin="round"/>
<path d="M38.4583 34.4842C38.5401 34.2942 38.5855 34.0854 38.5855 33.8662V32.6727C38.5855 31.8 37.867 31.09 36.9841 31.09C36.3296 31.0899 32.2999 31.0901 31.7861 31.09C30.4396 31.1221 29.3388 29.8168 29.6099 28.4519L30.0048 26.3599C30.2914 24.8408 29.5151 23.3046 28.1168 22.6242C27.4505 22.2798 26.3876 22.6005 26.1194 23.4487L25.0116 26.6984C24.9175 26.9745 25.0676 27.2738 25.3471 27.3668C25.6264 27.4597 25.9292 27.3114 26.0233 27.0353L27.1311 23.7854C27.1785 23.6464 27.2833 23.5854 27.3415 23.5615C27.3991 23.5378 27.515 23.5076 27.6454 23.571C28.616 24.0432 29.1547 25.1106 28.9553 26.1665L28.5604 28.2584C28.2355 29.8345 29.2327 31.59 30.8866 32.0232C30.6364 32.3767 30.489 32.8063 30.489 33.2694C30.489 33.9243 30.7831 34.5121 31.2472 34.912C30.7705 35.3121 30.4672 35.9082 30.4672 36.5732C30.4672 37.2382 30.7704 37.8344 31.2472 38.2344C30.7831 38.6343 30.489 39.2221 30.489 39.877C30.489 40.5101 30.7638 41.0807 31.2014 41.4793C30.766 41.8463 30.489 42.3919 30.489 43.0005C30.489 43.3418 30.5761 43.6633 30.7293 43.9446H29.6532C29.3583 43.9446 29.1194 44.1808 29.1194 44.4722C29.1194 44.7637 29.3583 44.9998 29.6532 44.9998H36.2341C37.0646 44.9998 37.7404 44.332 37.7404 43.5112V42.49C37.7404 42.2723 37.6917 42.066 37.6063 41.8794C38.1858 41.5974 38.5856 41.0079 38.5856 40.3275V39.4265C38.5856 39.1582 38.5235 38.904 38.4127 38.6772C39.1285 38.4604 39.6506 37.8013 39.6506 37.0238V36.1227C39.6504 35.3618 39.1504 34.7147 38.4583 34.4842ZM37.5179 32.6727V33.8662C37.5179 34.1571 37.2784 34.3938 36.9841 34.3938H32.694C32.0668 34.3938 31.5565 33.8894 31.5565 33.2695C31.5565 32.6496 32.0669 32.1452 32.694 32.1452H36.9841C37.2784 32.1452 37.5179 32.3818 37.5179 32.6727ZM36.8362 38.7527C37.212 38.7527 37.5179 39.055 37.5179 39.4265V40.3275C37.5179 40.699 37.212 41.0012 36.8362 41.0012H32.694C32.0668 41.0012 31.5565 40.4969 31.5565 39.877C31.5565 39.2571 32.0669 38.7528 32.694 38.7528L36.8362 38.7527ZM36.6726 43.5111C36.6726 43.7501 36.4758 43.9446 36.234 43.9446H32.5116C31.985 43.9446 31.5565 43.521 31.5565 43.0005C31.5565 42.4799 31.985 42.0564 32.5116 42.0564C32.6619 42.0555 36.0505 42.057 36.234 42.0564C36.4758 42.0564 36.6726 42.2509 36.6726 42.4899V43.5111ZM38.5828 37.0238C38.5828 37.3953 38.277 37.6975 37.9011 37.6975H32.6722C32.0449 37.6975 31.5347 37.1932 31.5347 36.5733C31.5347 35.9534 32.045 35.449 32.6722 35.449H37.9011C38.277 35.449 38.5828 35.7513 38.5828 36.1228V37.0238Z" stroke="url(#paint7_linear_712_8043)" stroke-width="0.5" stroke-linejoin="round"/>
<path d="M23.5684 17.0414L22.9832 20.4136C22.8704 21.0693 23.5761 21.7772 24.3519 21.3965L27.416 19.8043L30.48 21.3964C31.082 21.7328 31.9767 21.2081 31.8487 20.4137L31.2635 17.0414L33.7424 14.6532C34.2405 14.2102 34.0295 13.1666 33.2196 13.063L29.7938 12.571L28.2619 9.50264C27.9747 8.88092 26.9388 8.78568 26.5701 9.50264L25.0381 12.5708L21.6124 13.0628C20.9086 13.146 20.5211 14.0845 21.0895 14.6531L23.5684 17.0414ZM25.2563 13.6058C25.5635 13.5616 25.8291 13.3709 25.9665 13.0957L27.416 10.1928L28.8656 13.0958C29.0031 13.371 29.2685 13.5616 29.5758 13.6058L32.8169 14.0712L30.4717 16.3307C30.2492 16.5449 30.1477 16.8535 30.2003 17.156L30.7539 20.3465L27.8548 18.8401C27.58 18.6974 27.2518 18.6975 26.977 18.8402L24.078 20.3465L24.6316 17.1561C24.6841 16.8535 24.5826 16.5449 24.3603 16.3308L22.0149 14.0712L25.2563 13.6058Z" stroke="url(#paint8_linear_712_8043)" stroke-width="0.5" stroke-linejoin="round"/>
<path d="M43.7982 16.2294C43.7037 15.942 43.457 15.7365 43.1544 15.6931L41.0465 15.3903L40.1039 13.5024C39.8611 12.9768 38.9852 12.896 38.6733 13.5024L37.7307 15.3902L35.6227 15.6931C35.0413 15.7664 34.6962 16.5349 35.1806 17.0377L36.706 18.5072L36.3459 20.5821C36.236 21.1289 36.8673 21.7221 37.5032 21.4133L39.3886 20.4335L41.2741 21.4134C41.7105 21.6926 42.5553 21.2785 42.4312 20.5822L42.0712 18.5072L43.5966 17.0376C43.8155 16.8266 43.8928 16.5169 43.7982 16.2294ZM41.2244 17.8495C41.0363 18.0306 40.9505 18.2915 40.9949 18.5473L41.2865 20.2277L39.7597 19.4344C39.6435 19.3741 39.516 19.3439 39.3886 19.3439C39.2611 19.3439 39.1336 19.374 39.0173 19.4344L37.4905 20.2277L37.7822 18.5473C37.8265 18.2915 37.7407 18.0306 37.5527 17.8496L36.3175 16.6595L38.0247 16.4144C38.2845 16.377 38.5089 16.2159 38.6252 15.9832L39.3886 14.4543L40.1519 15.9829C40.268 16.2157 40.4925 16.377 40.7525 16.4144L42.4595 16.6595L41.2244 17.8495Z" stroke="url(#paint9_linear_712_8043)" stroke-width="0.5" stroke-linejoin="round"/>
<path d="M17.6951 21.5048C18.0815 21.5177 18.5663 21.113 18.4805 20.5823L18.1204 18.5074L19.6459 17.0378C20.0514 16.6777 19.903 15.7869 19.2037 15.6932L17.0958 15.3904L16.1531 13.5026C15.9102 12.9768 15.0347 12.8963 14.7226 13.5026L13.7799 15.3905L11.672 15.6932C11.0906 15.7666 10.7455 16.535 11.2299 17.0378L12.7553 18.5074L12.3952 20.5823C12.2853 21.1291 12.9164 21.7223 13.5525 21.4134L15.4378 20.4336L17.3233 21.4134C17.441 21.4746 17.5683 21.5048 17.6951 21.5048ZM15.4378 19.3439C15.3104 19.3439 15.1828 19.3742 15.0667 19.4344L13.5399 20.2278L13.8315 18.5473C13.8759 18.2915 13.79 18.0307 13.6021 17.8496L12.3669 16.6596L14.0741 16.4144C14.334 16.377 14.5585 16.2157 14.6744 15.9832L15.4379 14.4544L16.2013 15.9833C16.3174 16.2159 16.5418 16.3771 16.8018 16.4144L18.5088 16.6596L17.2737 17.8496C17.0856 18.0307 16.9997 18.2915 17.0442 18.5474L17.3358 20.2278L15.8088 19.4344C15.6926 19.374 15.5652 19.3439 15.4378 19.3439Z" stroke="url(#paint10_linear_712_8043)" stroke-width="0.5" stroke-linejoin="round"/>
</svg>
