<svg width="38" height="38" viewBox="0 0 38 38" fill="none" xmlns="http://www.w3.org/2000/svg">
<path d="M20.5833 33.25L6.33334 33.25C5.45888 33.25 4.75 32.5411 4.75 31.6667L4.75 11.0833C4.75 10.2089 5.45888 9.5 6.33333 9.5L15.1775 9.5C15.5974 9.5 16.0001 9.66681 16.2971 9.96375L21.7029 15.3696C21.9999 15.6665 22.1667 16.0692 22.1667 16.4892V31.6667C22.1667 32.5411 21.4578 33.25 20.5833 33.25Z" stroke="white" stroke-width="2" stroke-linecap="round" stroke-linejoin="round"/>
<path d="M15.833 9.5L15.833 6.33333C15.833 5.45888 16.5419 4.75 17.4163 4.75L26.2605 4.75C26.6804 4.75 27.0832 4.91681 27.3801 5.21375L32.7859 10.6196C33.0829 10.9165 33.2497 11.3192 33.2497 11.7392V26.9167C33.2497 27.7911 32.5408 28.5 31.6663 28.5L22.1663 28.5" stroke="white" stroke-width="2" stroke-linecap="round" stroke-linejoin="round"/>
<path d="M22.1667 17.4167L15.8333 17.4167C14.9589 17.4167 14.25 16.7078 14.25 15.8333L14.25 9.5" stroke="white" stroke-width="2" stroke-linecap="round" stroke-linejoin="round"/>
<path d="M33.2497 12.6667L26.9163 12.6667C26.0419 12.6667 25.333 11.9578 25.333 11.0833L25.333 4.75" stroke="white" stroke-width="2" stroke-linecap="round" stroke-linejoin="round"/>
</svg>
