<svg width="25" height="18" viewBox="0 0 25 18" fill="none" xmlns="http://www.w3.org/2000/svg">
<path d="M25 2.7V15.3C25 16.0161 24.7178 16.7028 24.2155 17.2092C23.7131 17.7155 23.0318 18 22.3214 18H2.67857C1.96817 18 1.28687 17.7155 0.784535 17.2092C0.282206 16.7028 0 16.0161 0 15.3V2.7C0.00289674 2.39221 0.0603478 2.08742 0.169643 1.8L11.0179 9.09C11.4571 9.38412 11.9727 9.54101 12.5 9.54101C13.0273 9.54101 13.5429 9.38412 13.9821 9.09L24.8304 1.8C24.9397 2.08742 24.9971 2.39221 25 2.7ZM12.9911 7.587L23.7054 0.387001C23.2876 0.13342 22.8091 -0.000390321 22.3214 8.55209e-07H2.67857C2.19311 0.00395782 1.71783 0.140836 1.30357 0.396001L12.0179 7.596C12.1636 7.68956 12.333 7.73851 12.5058 7.73692C12.6785 7.73532 12.8471 7.68324 12.9911 7.587Z" fill="#393939"/>
</svg>
