<svg width="74" height="74" viewBox="0 0 74 74" fill="none" xmlns="http://www.w3.org/2000/svg">
<g filter="url(#filter0_i_481_8710)">
<path d="M46.1972 20.2062C46.197 18.3872 45.6573 16.609 44.6465 15.0966C43.6357 13.5842 42.1991 12.4055 40.5184 11.7095C38.8378 11.0136 36.9884 10.8316 35.2043 11.1867C33.4202 11.5417 31.7815 12.4178 30.4953 13.7042C29.2091 14.9905 28.3332 16.6294 27.9784 18.4136C27.6236 20.1977 27.8058 22.047 28.502 23.7276C29.1982 25.4082 30.3771 26.8446 31.8896 27.8552C33.4022 28.8658 35.1804 29.4052 36.9995 29.4052C39.4382 29.4023 41.7761 28.4321 43.5004 26.7076C45.2247 24.983 46.1946 22.6449 46.1972 20.2062ZM29.9803 20.2062C29.9805 18.818 30.3924 17.4611 31.1638 16.3069C31.9353 15.1528 33.0316 14.2533 34.3142 13.7222C35.5968 13.1912 37.0081 13.0523 38.3696 13.3233C39.7311 13.5943 40.9817 14.2629 41.9632 15.2446C42.9448 16.2263 43.6132 17.477 43.8839 18.8386C44.1546 20.2001 44.0156 21.6114 43.4843 22.8939C42.953 24.1764 42.0533 25.2726 40.899 26.0438C39.7447 26.8151 38.3877 27.2267 36.9995 27.2267C35.1383 27.2246 33.354 26.4842 32.0381 25.168C30.7222 23.8519 29.9821 22.0674 29.9803 20.2062Z" fill="#2B388D"/>
<path d="M73.9278 72.5206L65.0482 49.2415C64.9694 49.0354 64.83 48.8581 64.6483 48.7329C64.4665 48.6078 64.2511 48.5407 64.0305 48.5406H47.2247C47.3274 48.3732 47.4295 48.2108 47.5322 48.0427C53.9987 37.3368 57.2528 27.9717 57.2061 20.2111C57.207 14.852 55.079 9.71195 51.2901 5.92181C47.5013 2.13167 42.362 0.00188479 37.0028 0.000976853C31.6436 6.89125e-05 26.5036 2.12812 22.7135 5.91697C18.9233 9.70583 16.7936 14.8451 16.7926 20.2043C16.746 27.9717 20 37.3381 26.4665 48.0427C26.5692 48.2126 26.6713 48.3751 26.774 48.5406H9.96826C9.74763 48.5407 9.53221 48.6078 9.3505 48.7329C9.16879 48.8581 9.02933 49.0354 8.95058 49.2415L0.0721645 72.5206C0.0089028 72.6855 -0.0132498 72.8634 0.00762078 73.0388C0.0284914 73.2142 0.0917573 73.3819 0.191952 73.5274C0.292148 73.6728 0.426259 73.7917 0.582698 73.8738C0.739137 73.9558 0.9132 73.9985 1.08985 73.9982H72.9102C73.0868 73.9985 73.2609 73.9558 73.4173 73.8738C73.5737 73.7917 73.7079 73.6728 73.8081 73.5274C73.9082 73.3819 73.9715 73.2142 73.9924 73.0388C74.0133 72.8634 73.9911 72.6855 73.9278 72.5206ZM18.9718 20.2062C18.9722 17.8387 19.4389 15.4944 20.3453 13.3073C21.2517 11.1202 22.58 9.13298 24.2543 7.45919C25.9287 5.78541 27.9163 4.45781 30.1038 3.55218C32.2912 2.64656 34.6356 2.18065 37.0031 2.18106C39.3706 2.18146 41.7148 2.64818 43.902 3.55456C46.0891 4.46094 48.0763 5.78923 49.7501 7.4636C51.4239 9.13796 52.7515 11.1256 53.6571 13.313C54.5627 15.5005 55.0286 17.8449 55.0282 20.2124C55.1216 35.6849 40.6562 54.7681 37 59.3443C33.3438 54.77 18.8778 35.6917 18.9718 20.2062ZM36.1703 61.7718C36.2726 61.892 36.3997 61.9885 36.543 62.0547C36.6862 62.121 36.8422 62.1553 37 62.1553C37.1578 62.1553 37.3138 62.121 37.457 62.0547C37.6003 61.9885 37.7275 61.892 37.8297 61.7718C40.7218 58.2487 43.4029 54.5576 45.8591 50.7179H63.2792L64.6735 54.3747L30.6319 66.4817L18.4981 50.7161H28.1396C30.5962 54.5564 33.2777 58.2481 36.1703 61.7718ZM30.5939 68.8053H30.6001L50.9083 61.585L58.7852 71.8197H22.1238L30.5939 68.8053ZM10.7195 50.7161H15.7488L28.4726 67.2492L15.6237 71.8191H2.67083L10.7195 50.7161ZM61.537 71.8197L53.0663 60.8138L65.4528 56.4088L71.3304 71.8197H61.537Z" fill="#2B388D"/>
</g>
<defs>
<filter id="filter0_i_481_8710" x="0" y="0.000976562" width="74" height="74.9971" filterUnits="userSpaceOnUse" color-interpolation-filters="sRGB">
<feFlood flood-opacity="0" result="BackgroundImageFix"/>
<feBlend mode="normal" in="SourceGraphic" in2="BackgroundImageFix" result="shape"/>
<feColorMatrix in="SourceAlpha" type="matrix" values="0 0 0 0 0 0 0 0 0 0 0 0 0 0 0 0 0 0 127 0" result="hardAlpha"/>
<feOffset dy="1"/>
<feGaussianBlur stdDeviation="0.5"/>
<feComposite in2="hardAlpha" operator="arithmetic" k2="-1" k3="1"/>
<feColorMatrix type="matrix" values="0 0 0 0 0 0 0 0 0 0 0 0 0 0 0 0 0 0 0.45 0"/>
<feBlend mode="normal" in2="shape" result="effect1_innerShadow_481_8710"/>
</filter>
</defs>
</svg>
