<svg width="27" height="26" viewBox="0 0 27 26" fill="none" xmlns="http://www.w3.org/2000/svg">
<path fill-rule="evenodd" clip-rule="evenodd" d="M3.59334 0H16.8635C18.4642 0 19.7664 1.30214 19.7664 2.90285V10.3673H12.642C11.2735 10.3673 10.1538 11.487 10.1538 12.8555C10.1538 14.224 11.2735 15.3437 12.642 15.3437H19.7664V22.8082C19.7664 24.4089 18.4643 25.7111 16.8635 25.7111H3.59334C1.99262 25.7111 0.69043 24.4089 0.69043 22.8082V2.90285C0.69043 1.30214 1.99262 0 3.59334 0ZM12.6419 14.0996C11.9535 14.0996 11.3978 13.5439 11.3978 12.8556C11.3978 12.1671 11.9535 11.6115 12.6419 11.6115H22.3707L21.6408 10.7987L20.911 9.98588C19.8422 8.74171 21.6588 7.12713 22.7688 8.31874C22.807 8.37816 23.163 8.76885 23.6363 9.28829C24.7164 10.4735 26.4074 12.3292 26.3268 12.4492C26.4908 12.865 26.3617 13.3524 26.0863 13.6849C26.0863 13.6849 22.7687 17.3923 22.7688 17.3923C21.6465 18.5782 19.8457 16.9645 20.9109 15.7252L22.3707 14.0996H12.6419Z" fill="#393939"/>
</svg>
