<svg width="42" height="30" viewBox="0 0 42 30" fill="none" xmlns="http://www.w3.org/2000/svg">
<path d="M10.825 8.44L14.055 16.345L17.268 8.44H19.495V20H17.54V15.58L17.795 11.534L14.922 18.64H13.103L10.298 11.517L10.553 15.58V20H8.598V8.44H10.825ZM30.2917 8.44L26.7557 15.359V20H24.7157V15.393L21.1457 8.44H23.3217L25.8207 13.37L28.1837 8.44H30.2917Z" fill="#2B388D"/>
<path d="M35.3138 14.5078L41.1108 2.3036C41.348 1.80421 41.3128 1.21801 41.0174 0.750699C40.7219 0.283386 40.2075 0 39.6547 0H1.61198C0.721683 0 0 0.721683 0 1.61198V27.4036C0 28.2939 0.721683 29.0156 1.61198 29.0156H39.6547C40.2075 29.0156 40.7219 28.7322 41.0173 28.2649C41.3127 27.7976 41.348 27.2115 41.1107 26.712L35.3138 14.5078ZM3.22396 25.7917V3.22396H37.1044L32.0731 13.8162C31.8652 14.2538 31.8652 14.7618 32.0731 15.1994L37.1044 25.7917H3.22396Z" fill="#2B388D"/>
</svg>
