<svg width="37" height="37" viewBox="0 0 37 37" fill="none" xmlns="http://www.w3.org/2000/svg">
<path d="M7.94962 6.02099C7.61356 6.39056 7.43193 6.87376 7.44179 7.372C7.44179 7.88584 7.58689 8.31381 7.872 8.66094C8.15711 9.00807 8.65769 9.27005 9.344 9.44398V5.31445C8.75273 5.40972 8.28915 5.64066 7.94962 6.02099Z" fill="white"/>
<path d="M10.2539 11.2427V15.7634C10.8218 15.7023 11.3453 15.4292 11.7186 14.9991C12.1002 14.5661 12.299 14.0226 12.299 13.3796C12.299 12.829 12.1583 12.3894 11.8862 12.0553C11.6142 11.7212 11.0701 11.4512 10.2539 11.2427Z" fill="white"/>
<path d="M34.9868 21.2705L35.0478 21.3643L33.6563 16.638C33.4791 16.0405 33.0712 15.5373 32.522 15.2382C31.9727 14.9392 31.3267 14.8687 30.7254 15.0423L30.4352 15.126C29.9614 15.2631 29.6328 15.6312 29.3354 16.0072C28.911 14.8525 27.6827 14.1734 26.4791 14.522L25.8117 14.7197C25.3764 14.8489 25.0383 15.139 24.7489 15.4594L24.7083 15.3151C24.5301 14.718 24.1212 14.2156 23.5712 13.918C23.0213 13.6204 22.3751 13.5518 21.7744 13.7274L21.1048 13.9215C20.6898 14.0413 20.425 14.3856 20.1435 14.6952C19.8534 13.7086 19.5632 12.7228 19.3187 11.8964V4.36918C19.3162 3.37417 18.9181 2.42054 18.2113 1.71649C17.5045 1.01244 16.5464 0.615137 15.5462 0.611328H3.97335C2.97217 0.613993 2.01274 1.01072 1.30466 1.71483C0.596574 2.41895 0.197399 3.37322 0.194336 4.36918V17.5206C0.197398 18.5167 0.596527 19.4711 1.30457 20.1754C2.01261 20.8798 2.97204 21.2768 3.97335 21.2799H15.544C15.8331 21.2776 16.1208 21.2417 16.4015 21.1731C16.6148 21.8998 16.7599 22.3935 16.7824 22.4721C16.4255 23.5633 15.7667 26.9726 15.5534 28.097C15.5571 28.4672 15.7181 29.912 16.8288 30.6843L23.5693 34.987C23.7318 35.0866 23.8152 35.1429 23.8152 35.1429C25.4112 36.0457 26.9347 36.3106 28.2595 35.9245L32.2358 34.7698C34.9259 33.9882 36.699 30.7203 36.6612 28.1663C36.6344 26.6709 35.573 22.4353 34.9868 21.2705ZM24.627 33.8279C24.4906 33.7514 24.3593 33.6692 24.3593 33.6692C24.3861 33.6894 17.7074 29.43 17.7074 29.43C17.2576 29.1175 17.0936 28.4088 17.0719 28.1612C17.5209 25.9276 18.0999 23.1671 18.2754 22.7752L18.3879 22.5212L18.3153 22.2361L14.9876 10.9438C14.929 10.7336 14.9549 10.509 15.0599 10.3175C15.1648 10.1259 15.3405 9.98253 15.5498 9.91755L16.2194 9.72631C16.3238 9.69577 16.4332 9.68599 16.5414 9.69754C16.6495 9.70909 16.7544 9.74174 16.8498 9.79362C16.9453 9.8455 17.0296 9.91559 17.0978 9.99989C17.166 10.0842 17.2169 10.181 17.2474 10.2849L20.6064 21.6963L22.3338 21.0901L22.1459 20.39L20.9713 16.4012C20.9108 16.1913 20.9361 15.9661 21.0416 15.7745C21.1472 15.583 21.3245 15.4407 21.535 15.3786L22.2046 15.1845C22.3092 15.1538 22.4188 15.144 22.5272 15.1556C22.6355 15.1672 22.7406 15.1999 22.8362 15.252C22.9318 15.304 23.0162 15.3743 23.0845 15.4588C23.1527 15.5433 23.2036 15.6404 23.2341 15.7445L24.6676 20.6044L26.5909 20.2637L26.3435 19.4526L25.6782 17.2153C25.6175 17.0052 25.6426 16.7796 25.7482 16.5879C25.8538 16.3961 26.0312 16.2535 26.2419 16.1912L26.913 15.9949C27.1241 15.9344 27.3506 15.9596 27.543 16.065C27.7355 16.1704 27.878 16.3474 27.9395 16.5571L28.9349 19.9245L30.9118 19.6994L30.6644 18.8276L30.3075 17.6166C30.2481 17.4054 30.2742 17.1795 30.38 16.9873C30.4306 16.8927 30.4998 16.8093 30.5836 16.7421C30.6674 16.6749 30.764 16.6252 30.8676 16.5961L31.1621 16.5102C31.2653 16.4801 31.3734 16.4706 31.4803 16.4824C31.5871 16.4942 31.6905 16.5269 31.7846 16.5788C31.8808 16.63 31.9659 16.6998 32.0348 16.784C32.1036 16.8683 32.155 16.9653 32.1858 17.0695L33.5859 21.8219L33.6019 21.858C33.7767 22.3278 35.0949 26.3144 35.1305 28.1814C35.1588 30.1336 33.7992 32.7158 31.8114 33.2968L27.8322 34.4537C26.6758 34.7914 25.449 34.3021 24.627 33.8308V33.8279ZM12.8496 15.9076C12.18 16.6098 11.3159 16.9836 10.2473 17.0349V18.5728H9.34552V17.0573C8.59175 16.9642 7.96711 16.796 7.48975 16.5521C7.01238 16.3081 6.60684 15.9076 6.26369 15.3627C5.92054 14.8178 5.7145 14.1517 5.66299 13.3644L7.19158 13.0714C7.31491 13.8869 7.51732 14.4837 7.81259 14.8648C8.23844 15.4053 8.75571 15.7055 9.3448 15.7647V11.0138C8.6761 10.8328 8.03325 10.568 7.43171 10.2257C6.95722 9.96907 6.56803 9.58066 6.31157 9.10781C6.04216 8.61049 5.90623 8.05245 5.91691 7.48762C5.91691 6.41181 6.29924 5.54049 7.06389 4.87364C7.57173 4.42403 8.33638 4.15195 9.34262 4.04875V3.31695H10.2458V4.04586C11.1266 4.12958 11.831 4.38939 12.3439 4.82529C13.0106 5.37666 13.4053 6.13805 13.541 7.09862L11.9761 7.33317C11.8825 6.73705 11.6975 6.28239 11.4146 5.96196C11.1316 5.64153 10.7428 5.43584 10.2487 5.33481V9.68084C11.017 9.8757 11.5191 10.028 11.7722 10.1341C12.2025 10.314 12.5959 10.5708 12.933 10.8918C13.2351 11.1924 13.4689 11.5539 13.6186 11.952C13.7848 12.3762 13.867 12.8283 13.8609 13.2835C13.8587 14.3321 13.5257 15.2061 12.8496 15.9076Z" fill="white"/>
</svg>
