<svg width="15" height="16" viewBox="0 0 15 16" fill="none" xmlns="http://www.w3.org/2000/svg">
<path fill-rule="evenodd" clip-rule="evenodd" d="M6.94333 15.5172H7.86328C8.60737 15.5172 9.21271 14.9119 9.21271 14.1679V13.8566C9.52904 13.7556 9.83637 13.628 10.1316 13.4752L10.352 13.6956C10.8852 14.2293 11.7407 14.2163 12.2606 13.6957L12.9108 13.0455C13.4306 12.5263 13.4454 11.6707 12.911 11.1369L12.6904 10.9164C12.8432 10.6211 12.9708 10.3138 13.0719 9.99744H13.3831C14.1271 9.99744 14.7325 9.39209 14.7325 8.64804V7.72806C14.7325 6.98401 14.1271 6.37866 13.3831 6.37866H13.0719C12.9708 6.06228 12.8432 5.755 12.6904 5.45974L12.9108 5.23935C13.4455 4.70521 13.4306 3.84979 12.911 3.33076L12.2608 2.68058C11.7421 2.16122 10.8864 2.14553 10.3522 2.68038L10.1316 2.90095C9.83637 2.74815 9.52904 2.62058 9.21271 2.51951V2.20828C9.21271 1.46423 8.60736 0.858887 7.86331 0.858887H6.94336C6.19928 0.858887 5.59393 1.46423 5.59393 2.20828V2.51949C5.27761 2.62058 4.97027 2.74815 4.67501 2.90092L4.45465 2.68056C3.92148 2.14679 3.06597 2.15978 2.54609 2.68038L1.89583 3.33062C1.376 3.84987 1.36126 4.70538 1.89566 5.23921L2.11622 5.45974C1.96342 5.755 1.83588 6.06231 1.73479 6.37866H1.42358C0.679529 6.37866 0.0741577 6.98401 0.0741577 7.72806V8.64804C0.0741577 9.39209 0.679529 9.99744 1.42355 9.99744H1.73476C1.83585 10.3138 1.96339 10.6211 2.11619 10.9164L1.8958 11.1368C1.36108 11.6709 1.37603 12.5263 1.89563 13.0453L2.54583 13.6955C3.06451 14.2149 3.92022 14.2306 4.45442 13.6957L4.67498 13.4752C4.97024 13.628 5.27758 13.7555 5.59391 13.8566V14.1678C5.59391 14.9119 6.19928 15.5172 6.94333 15.5172ZM6.13068 13.1179C5.6702 12.9991 5.22874 12.8158 4.81856 12.5732C4.61091 12.4504 4.39839 12.5371 4.29624 12.6392L3.84693 13.0885C3.65299 13.2827 3.34196 13.2772 3.15338 13.0884L2.50277 12.4378C2.31385 12.2491 2.30878 11.9381 2.50295 11.7442L2.95211 11.295C3.09074 11.1564 3.11788 10.9415 3.01811 10.7728C2.77556 10.3626 2.5923 9.92117 2.47346 9.46066C2.4245 9.27105 2.2535 9.13855 2.05764 9.13855H1.42358C1.15312 9.13855 0.933044 8.9185 0.933044 8.64804V7.72806C0.933044 7.4576 1.15312 7.23755 1.42358 7.23752H2.05767C2.2535 7.23752 2.42453 7.10505 2.47349 6.91541C2.59233 6.4549 2.77556 6.01344 3.01813 5.60329C3.11791 5.43455 3.09077 5.21965 2.95214 5.08103L2.5028 4.63169C2.30824 4.43735 2.31453 4.12635 2.50297 3.93814L3.15364 3.2875C3.34251 3.09832 3.65351 3.09382 3.84716 3.2877L4.2963 3.73687C4.43492 3.8755 4.64979 3.90264 4.81859 3.80286C5.22876 3.56028 5.67023 3.37703 6.13071 3.25819C6.32035 3.20926 6.45285 3.03822 6.45285 2.84237V2.20828C6.45285 1.93782 6.67292 1.71777 6.94339 1.71777H7.86334C8.1338 1.71777 8.35388 1.93782 8.35388 2.20828V2.84243C8.35388 3.03828 8.48638 3.20932 8.67602 3.25824C9.1365 3.37708 9.57796 3.56034 9.98814 3.80292C10.1569 3.90272 10.3718 3.87558 10.5104 3.73693L10.9597 3.28759C11.1537 3.09339 11.4647 3.09892 11.6533 3.28776L12.3039 3.93837C12.4928 4.12706 12.4979 4.43798 12.3037 4.63192L11.8546 5.08109C11.7159 5.21971 11.6888 5.4346 11.7886 5.60335C12.0311 6.01349 12.2144 6.45496 12.3332 6.91547C12.3822 7.10508 12.5532 7.23758 12.749 7.23758H13.3831C13.6536 7.23758 13.8736 7.45762 13.8736 7.72809V8.64807C13.8736 8.91853 13.6536 9.13858 13.3831 9.13858H12.749C12.5532 9.13858 12.3822 9.27105 12.3332 9.46069C12.2144 9.9212 12.0311 10.3627 11.7886 10.7728C11.6888 10.9416 11.7159 11.1564 11.8546 11.2951L12.3039 11.7444C12.4985 11.9387 12.4922 12.2498 12.3037 12.438L11.6531 13.0886C11.4642 13.2778 11.1532 13.2823 10.9595 13.0884L10.5104 12.6392C10.3717 12.5006 10.1569 12.4734 9.98811 12.5732C9.57794 12.8158 9.13647 12.9991 8.67599 13.1179C8.48635 13.1668 8.35385 13.3379 8.35385 13.5337V14.1678C8.35385 14.4383 8.13377 14.6583 7.86331 14.6583H6.94336C6.6729 14.6583 6.45282 14.4383 6.45282 14.1678V13.5337C6.45282 13.3379 6.32032 13.1668 6.13068 13.1179ZM4.21407 8.18807C4.21407 9.94667 5.64478 11.3774 7.40341 11.3774C9.16203 11.3774 10.5927 9.94667 10.5927 8.18807C10.5927 6.42947 9.16203 4.99874 7.40341 4.99874C5.64478 4.99874 4.21407 6.42947 4.21407 8.18807ZM5.07296 8.18807C5.07296 6.90306 6.11837 5.85762 7.40341 5.85762C8.68844 5.85762 9.73385 6.90306 9.73385 8.18807C9.73385 9.47308 8.68841 10.5185 7.40341 10.5185C6.1184 10.5185 5.07296 9.47308 5.07296 8.18807Z" fill="#F7FAFD"/>
</svg>
