<svg width="26" height="28" viewBox="0 0 26 28" fill="none" xmlns="http://www.w3.org/2000/svg">
<path d="M21.125 18.1562C19.5194 18.1562 18.1046 18.9536 17.216 20.1663L9.53279 16.1943C9.66035 15.7553 9.75 15.3004 9.75 14.8203C9.75 14.1692 9.61778 13.5502 9.38936 12.9808L17.4301 8.09572C18.325 9.156 19.6402 9.84375 21.125 9.84375C23.8132 9.84375 26 7.63596 26 4.92188C26 2.20779 23.8132 0 21.125 0C18.4368 0 16.25 2.20779 16.25 4.92188C16.25 5.54734 16.3776 6.14064 16.5892 6.69145L8.52448 11.5909C7.6304 10.5621 6.33409 9.89844 4.875 9.89844C2.18676 9.89844 0 12.1062 0 14.8203C0 17.5344 2.18676 19.7422 4.875 19.7422C6.50704 19.7422 7.94576 18.9214 8.83106 17.6747L16.4889 21.6338C16.3479 22.0935 16.25 22.5723 16.25 23.0781C16.25 25.7922 18.4368 28 21.125 28C23.8132 28 26 25.7922 26 23.0781C26 20.364 23.8132 18.1562 21.125 18.1562Z" fill="#393939"/>
</svg>
