<svg width="54" height="54" viewBox="0 0 54 54" fill="none" xmlns="http://www.w3.org/2000/svg">
<defs>
<linearGradient id="paint0_linear_712_8036" x1="1.99819" y1="27" x2="52" y2="27" gradientUnits="userSpaceOnUse">
<stop stop-color="#FBB03B"/>
<stop offset="0.26" stop-color="#F49A29"/>
<stop offset="0.74" stop-color="#E9750B"/>
<stop offset="1" stop-color="#E56700"/>
</linearGradient>
<linearGradient id="paint1_linear_712_8036" x1="27.058" y1="26.6836" x2="27.058" y2="33.7766" gradientUnits="userSpaceOnUse">
<stop stop-color="#E42222"/>
<stop offset="1" stop-color="#731515"/>
</linearGradient>
<linearGradient id="paint2_linear_712_8036" x1="27.058" y1="26.6836" x2="27.058" y2="33.7766" gradientUnits="userSpaceOnUse">
<stop stop-color="#E42222"/>
<stop offset="1" stop-color="#731515"/>
</linearGradient>
<linearGradient id="paint3_linear_712_8036" x1="27.058" y1="26.6836" x2="27.058" y2="33.7766" gradientUnits="userSpaceOnUse">
<stop stop-color="#E42222"/>
<stop offset="1" stop-color="#731515"/>
</linearGradient>
</defs>
<circle cx="27" cy="27" r="25" stroke="url(#paint0_linear_712_8036)" stroke-width="3"/>
<path d="M39.8113 33.8203C40.6071 33.8203 41.2527 33.1908 41.2527 32.4141V18.1406C41.2527 15.0389 38.666 12.5156 35.487 12.5156H30.9466V10.4062C30.9466 9.62952 30.3011 9 29.5052 9H23.7396C22.9434 9 22.2982 9.62952 22.2982 10.4062V12.5156H17.7656C14.5864 12.5156 12 15.0389 12 18.1406V39.375C12 42.4767 14.5864 45 17.7656 45H35.487C38.666 45 41.2527 42.4767 41.2527 39.375C41.2527 38.5983 40.6071 37.9688 39.8113 37.9688C39.0151 37.9688 38.3699 38.5983 38.3699 39.375C38.3699 40.9257 37.0765 42.1875 35.487 42.1875H17.7656C16.1761 42.1875 14.8828 40.9257 14.8828 39.375V18.1406C14.8828 16.5899 16.1761 15.3281 17.7656 15.3281H22.2982V16.0312C22.2982 18.3576 24.2379 20.25 26.6224 20.25C29.0066 20.25 30.9466 18.3576 30.9466 16.0312V15.3281H35.487C37.0765 15.3281 38.3699 16.5899 38.3699 18.1406V32.4141C38.3699 33.1908 39.0151 33.8203 39.8113 33.8203ZM28.0638 16.0312C28.0638 16.8066 27.4171 17.4375 26.6224 17.4375C25.8274 17.4375 25.181 16.8066 25.181 16.0312V11.8125H28.0638V16.0312Z" fill="#2B388D"/>
<path d="M17 28.5175H18.8499V33.6795H21.0578V28.5175H22.9276V26.8097H17V28.5175Z" fill="url(#paint1_linear_712_8036)"/>
<path d="M28.2921 28.5951C28.2921 27.6345 27.5262 26.6836 25.915 26.6836C24.3436 26.6836 23.4982 27.5666 23.4982 28.5951C23.4982 28.9929 23.6275 29.3617 23.9557 29.7595C23.1103 30.2058 22.7026 30.9045 22.7026 31.671C22.7026 32.9227 23.7668 33.7766 25.4973 33.7766C26.3526 33.7766 27.0787 33.5922 27.6953 33.2332L28.1827 33.6795H30.6094L28.9485 32.1076C29.3065 31.6225 29.6248 31.05 29.8834 30.3805L29.9828 30.1282H27.8445L27.8147 30.2155C27.745 30.429 27.6655 30.6231 27.566 30.8074L25.9648 29.2937C25.6863 29.0317 25.5272 28.7795 25.5272 28.5757C25.5272 28.3428 25.7161 28.2264 25.915 28.2264C26.0941 28.2264 26.283 28.3331 26.283 28.5951H28.2921ZM25.6564 32.0785C25.0995 32.0785 24.8111 31.7971 24.8111 31.4769C24.8111 31.2829 24.9205 31.0694 25.1492 30.9045L26.3228 31.9718C26.1239 32.0397 25.8951 32.0785 25.6564 32.0785Z" fill="url(#paint2_linear_712_8036)"/>
<path d="M30.2237 30.2349C30.2237 32.2823 31.5464 33.7281 33.7047 33.7281C35.5645 33.7281 36.8276 32.6413 37.116 31.0209H34.7887C34.5799 31.4769 34.1622 31.7389 33.6649 31.7389C32.9189 31.7389 32.4614 31.147 32.4614 30.2349C32.4614 29.3228 32.9189 28.731 33.6649 28.731C34.1622 28.731 34.5799 28.9929 34.7887 29.449H37.116C36.8276 27.8286 35.5645 26.7418 33.7047 26.7418C31.5464 26.7418 30.2237 28.1876 30.2237 30.2349Z" fill="url(#paint3_linear_712_8036)"/>
</svg>
