<svg width="54" height="54" viewBox="0 0 54 54" fill="none" xmlns="http://www.w3.org/2000/svg">
<defs>
<linearGradient id="paint0_linear_712_8024" x1="1.99819" y1="27" x2="52" y2="27" gradientUnits="userSpaceOnUse">
<stop stop-color="#FBB03B"/>
<stop offset="0.26" stop-color="#F49A29"/>
<stop offset="0.74" stop-color="#E9750B"/>
<stop offset="1" stop-color="#E56700"/>
</linearGradient>
<linearGradient id="paint1_linear_712_8024" x1="27.0902" y1="9" x2="27.0902" y2="45" gradientUnits="userSpaceOnUse">
<stop stop-color="#4CAC1F"/>
<stop offset="1" stop-color="#44700C"/>
</linearGradient>
</defs>
<circle cx="27" cy="27" r="25" stroke="url(#paint0_linear_712_8024)" stroke-width="3"/>
<path d="M27.3997 9.06783L31.5745 11.9234C31.7981 12.0764 31.7981 12.4063 31.5745 12.5593L27.3997 15.4149C27.144 15.5898 26.7971 15.4066 26.7971 15.0971V13.3752C19.3974 13.5467 13.2717 19.5966 13.2717 27.0344C13.2717 31.6593 15.5695 35.7476 19.0856 38.2198C19.7053 38.6557 19.7382 39.5607 19.143 40.0293L19.1263 40.0424C18.7376 40.3484 18.1927 40.3687 17.7879 40.0845C13.6831 37.2017 11 32.4311 11 27.0344C11 18.3425 18.1439 11.2749 26.7971 11.1025V9.38589C26.7971 9.07607 27.144 8.89315 27.3997 9.06783Z" fill="#2B388D"/>
<path d="M35.0947 15.7803C38.6108 18.2525 40.9089 22.3408 40.9089 26.9657C40.9089 34.4071 34.7894 40.4589 27.3853 40.6252V38.9028C27.3853 38.5932 27.0382 38.41 26.7827 38.585L22.608 41.4406C22.3844 41.5936 22.3844 41.9234 22.608 42.0764L26.7827 44.932C27.0382 45.107 27.3853 44.9238 27.3853 44.614V42.8978C36.0432 42.7306 43.1803 35.6609 43.1803 26.9657C43.1803 21.569 40.4975 16.7985 36.3924 13.9157C35.9876 13.6314 35.4427 13.6517 35.054 13.9577L35.0373 13.9709C34.4421 14.4394 34.475 15.3444 35.0947 15.7803Z" fill="#2B388D"/>
<path d="M24.4212 28.609L24.4072 28.6204L22.612 26.2268C22.0113 25.4259 20.8748 25.2636 20.0733 25.864C19.2724 26.4655 19.1101 27.602 19.7105 28.4026L22.3698 31.9474C22.7381 32.4393 23.2995 32.7628 23.9095 32.8345C23.9974 32.8447 24.0844 32.8496 24.1715 32.8496C24.6945 32.8496 25.2086 32.667 25.6148 32.3305L34.1773 25.2295C34.9482 24.5904 35.0551 23.4473 34.416 22.6763C34.057 22.2433 33.539 22.0198 33.0172 22.0204C32.6098 22.0206 32.2 22.1574 31.8619 22.4376L24.4212 28.609Z" fill="url(#paint1_linear_712_8024)"/>
</svg>
