<svg width="54" height="54" viewBox="0 0 54 54" fill="none" xmlns="http://www.w3.org/2000/svg">
<defs>
<linearGradient id="paint0_linear_712_8030" x1="1.99819" y1="27" x2="52" y2="27" gradientUnits="userSpaceOnUse">
<stop stop-color="#FBB03B"/>
<stop offset="0.26" stop-color="#F49A29"/>
<stop offset="0.74" stop-color="#E9750B"/>
<stop offset="1" stop-color="#E56700"/>
</linearGradient>
</defs>
<circle cx="27" cy="27" r="25" stroke="url(#paint0_linear_712_8030)" stroke-width="3"/>
<path d="M27.0694 23.0625H34.5627C35.1452 23.0625 35.6174 22.5903 35.6174 22.0078C35.6174 21.4253 35.1452 20.9531 34.5627 20.9531H27.0694C26.487 20.9531 26.0148 21.4253 26.0148 22.0078C26.0148 22.5903 26.487 23.0625 27.0694 23.0625Z" fill="#D06400"/>
<path d="M34.5627 30.0938H27.0694C26.487 30.0938 26.0148 29.6215 26.0148 29.0391C26.0148 28.4566 26.487 27.9844 27.0694 27.9844H34.5627C35.1452 27.9844 35.6174 28.4566 35.6174 29.0391C35.6174 29.6215 35.1452 30.0938 34.5627 30.0938Z" fill="#D06400"/>
<path d="M34.5929 35.0156H27.0694C26.487 35.0156 26.0148 35.4878 26.0148 36.0703C26.0148 36.6528 26.487 37.125 27.0694 37.125H34.5929C35.1753 37.125 35.6476 36.6528 35.6476 36.0703C35.6476 35.4878 35.1754 35.0156 34.5929 35.0156Z" fill="#D06400"/>
<path d="M20.1482 21.5683L22.5805 19.1361C22.9924 18.7242 23.6602 18.7242 24.0721 19.1362C24.484 19.5481 24.484 20.2159 24.0721 20.6277L20.894 23.8057C20.6962 24.0036 20.428 24.1146 20.1483 24.1146C19.8685 24.1146 19.6003 24.0035 19.4025 23.8057L18.0832 22.4864C17.6713 22.0745 17.6713 21.4066 18.0832 20.9948C18.4951 20.5829 19.1629 20.5829 19.5748 20.9948L20.1482 21.5683Z" fill="#EA4026"/>
<path d="M22.5805 26.7043L20.1482 29.1366L19.5748 28.5631C19.1629 28.1512 18.4951 28.1512 18.0832 28.5631C17.6713 28.9749 17.6713 29.6427 18.0832 30.0546L19.4025 31.374C19.6003 31.5718 19.8685 31.6829 20.1483 31.6829C20.428 31.6829 20.6963 31.5718 20.894 31.374L24.0721 28.1959C24.484 27.7841 24.484 27.1163 24.0721 26.7044C23.6602 26.2925 22.9924 26.2925 22.5805 26.7043Z" fill="#EA4026"/>
<path d="M20.1482 36.1678L22.5805 33.7356C22.9924 33.3237 23.6602 33.3238 24.0721 33.7356C24.484 34.1475 24.484 34.8154 24.0721 35.2272L20.894 38.4052C20.6963 38.6031 20.428 38.7142 20.1483 38.7142C19.8685 38.7142 19.6003 38.603 19.4025 38.4052L18.0832 37.0859C17.6713 36.6739 17.6713 36.0062 18.0832 35.5944C18.4951 35.1825 19.1629 35.1825 19.5748 35.5944L20.1482 36.1678Z" fill="#EA4026"/>
<path fill-rule="evenodd" clip-rule="evenodd" d="M39.2919 12.2436C38.562 11.5122 37.5914 11.1094 36.5588 11.1094H34.8145V10.7578C34.8145 9.78855 34.0259 9 33.0566 9H20.4004C19.4311 9 18.6426 9.78855 18.6426 10.7578V11.1094H16.892C14.7643 11.1094 13.0313 12.8423 13.0289 14.9723L13 41.1285C12.9989 42.1623 13.4002 43.1344 14.1299 43.8658C14.8598 44.5972 15.8304 45 16.8631 45H36.5298C38.6576 45 40.3906 43.2671 40.3929 41.1371L40.4219 14.9809C40.4231 13.947 40.0217 12.9749 39.2919 12.2436ZM20.752 11.1094H32.7051V13.2188H20.752V11.1094ZM38.2858 41.1347C38.2847 42.103 37.4969 42.8906 36.5298 42.8906H16.8631C16.3937 42.8906 15.9525 42.7075 15.6208 42.3751C15.289 42.0426 15.1066 41.6007 15.1071 41.1309L15.136 14.9747C15.1371 14.0064 15.9248 13.2188 16.892 13.2188H18.6426V13.5703C18.6426 14.5396 19.4311 15.3281 20.4004 15.3281H33.0566C34.0259 15.3281 34.8145 14.5396 34.8145 13.5703V13.2188H36.5588C37.0282 13.2188 37.4694 13.4018 37.8011 13.7343C38.1329 14.0667 38.3153 14.5086 38.3148 14.9785L38.2858 41.1347Z" fill="#2B388D"/>
</svg>
